<mxfile host="app.diagrams.net" modified="2024-04-11T11:03:40.124Z" agent="Mozilla/5.0 (Macintosh; Intel Mac OS X 10_15_7) AppleWebKit/537.36 (KHTML, like Gecko) Chrome/123.0.0.0 Safari/537.36" etag="3Vi76Axa4Uq5_mODSoBc" version="24.0.5" type="github" pages="8">
  <diagram id="Yf5h-WjNpbWa4NE3nOc_" name="app center">
    <mxGraphModel dx="954" dy="519" grid="1" gridSize="10" guides="1" tooltips="1" connect="1" arrows="1" fold="1" page="1" pageScale="1" pageWidth="827" pageHeight="1169" math="0" shadow="0">
      <root>
        <mxCell id="0" />
        <mxCell id="1" parent="0" />
        <mxCell id="HtehHeEMGHA8bfAg62U7-3" style="edgeStyle=orthogonalEdgeStyle;rounded=0;orthogonalLoop=1;jettySize=auto;html=1;" parent="1" source="HtehHeEMGHA8bfAg62U7-1" edge="1">
          <mxGeometry relative="1" as="geometry">
            <mxPoint x="160" y="610" as="targetPoint" />
          </mxGeometry>
        </mxCell>
        <mxCell id="HtehHeEMGHA8bfAg62U7-1" value="test-site" style="html=1;whiteSpace=wrap;" parent="1" vertex="1">
          <mxGeometry x="80" y="240" width="160" height="40" as="geometry" />
        </mxCell>
        <mxCell id="HtehHeEMGHA8bfAg62U7-4" style="edgeStyle=orthogonalEdgeStyle;rounded=0;orthogonalLoop=1;jettySize=auto;html=1;" parent="1" source="HtehHeEMGHA8bfAg62U7-2" edge="1">
          <mxGeometry relative="1" as="geometry">
            <mxPoint x="440" y="600" as="targetPoint" />
          </mxGeometry>
        </mxCell>
        <mxCell id="HtehHeEMGHA8bfAg62U7-2" value="test-device-service" style="html=1;whiteSpace=wrap;" parent="1" vertex="1">
          <mxGeometry x="360" y="240" width="160" height="40" as="geometry" />
        </mxCell>
        <mxCell id="HtehHeEMGHA8bfAg62U7-5" value="" style="html=1;points=[];perimeter=orthogonalPerimeter;outlineConnect=0;targetShapes=umlLifeline;portConstraint=eastwest;newEdgeStyle={&quot;edgeStyle&quot;:&quot;elbowEdgeStyle&quot;,&quot;elbow&quot;:&quot;vertical&quot;,&quot;curved&quot;:0,&quot;rounded&quot;:0};" parent="1" vertex="1">
          <mxGeometry x="435" y="320" width="10" height="180" as="geometry" />
        </mxCell>
        <mxCell id="HtehHeEMGHA8bfAg62U7-6" value="list device by platform" style="html=1;verticalAlign=bottom;endArrow=block;edgeStyle=elbowEdgeStyle;elbow=vertical;curved=0;rounded=0;" parent="1" edge="1">
          <mxGeometry relative="1" as="geometry">
            <mxPoint x="165" y="330" as="sourcePoint" />
            <mxPoint x="435" y="330" as="targetPoint" />
            <mxPoint as="offset" />
          </mxGeometry>
        </mxCell>
        <mxCell id="HtehHeEMGHA8bfAg62U7-7" value="return devices" style="html=1;verticalAlign=bottom;endArrow=open;dashed=1;endSize=8;edgeStyle=elbowEdgeStyle;elbow=horizontal;curved=0;rounded=0;" parent="1" edge="1">
          <mxGeometry relative="1" as="geometry">
            <mxPoint x="165" y="390" as="targetPoint" />
            <mxPoint x="435" y="390" as="sourcePoint" />
            <mxPoint as="offset" />
          </mxGeometry>
        </mxCell>
        <mxCell id="HtehHeEMGHA8bfAg62U7-8" value="" style="html=1;points=[];perimeter=orthogonalPerimeter;outlineConnect=0;targetShapes=umlLifeline;portConstraint=eastwest;newEdgeStyle={&quot;edgeStyle&quot;:&quot;elbowEdgeStyle&quot;,&quot;elbow&quot;:&quot;vertical&quot;,&quot;curved&quot;:0,&quot;rounded&quot;:0};" parent="1" vertex="1">
          <mxGeometry x="155" y="320" width="10" height="80" as="geometry" />
        </mxCell>
        <mxCell id="HtehHeEMGHA8bfAg62U7-10" style="edgeStyle=orthogonalEdgeStyle;rounded=0;orthogonalLoop=1;jettySize=auto;html=1;" parent="1" source="HtehHeEMGHA8bfAg62U7-9" edge="1">
          <mxGeometry relative="1" as="geometry">
            <mxPoint x="800" y="600" as="targetPoint" />
            <Array as="points">
              <mxPoint x="800" y="600" />
            </Array>
          </mxGeometry>
        </mxCell>
        <mxCell id="HtehHeEMGHA8bfAg62U7-9" value="appcenter-service" style="html=1;whiteSpace=wrap;" parent="1" vertex="1">
          <mxGeometry x="720" y="240" width="160" height="40" as="geometry" />
        </mxCell>
        <mxCell id="HtehHeEMGHA8bfAg62U7-11" value="" style="html=1;points=[];perimeter=orthogonalPerimeter;outlineConnect=0;targetShapes=umlLifeline;portConstraint=eastwest;newEdgeStyle={&quot;edgeStyle&quot;:&quot;elbowEdgeStyle&quot;,&quot;elbow&quot;:&quot;vertical&quot;,&quot;curved&quot;:0,&quot;rounded&quot;:0};" parent="1" vertex="1">
          <mxGeometry x="795" y="320" width="10" height="190" as="geometry" />
        </mxCell>
        <mxCell id="HtehHeEMGHA8bfAg62U7-12" value="list device by platform" style="html=1;verticalAlign=bottom;endArrow=block;edgeStyle=elbowEdgeStyle;elbow=horizontal;curved=0;rounded=0;" parent="1" edge="1">
          <mxGeometry relative="1" as="geometry">
            <mxPoint x="490" y="450" as="sourcePoint" />
            <mxPoint x="760" y="450" as="targetPoint" />
            <Array as="points">
              <mxPoint x="620" y="480" />
            </Array>
            <mxPoint as="offset" />
          </mxGeometry>
        </mxCell>
        <mxCell id="HtehHeEMGHA8bfAg62U7-13" value="return devices" style="html=1;verticalAlign=bottom;endArrow=open;dashed=1;endSize=8;edgeStyle=elbowEdgeStyle;elbow=vertical;curved=0;rounded=0;" parent="1" edge="1">
          <mxGeometry relative="1" as="geometry">
            <mxPoint x="445" y="490" as="targetPoint" />
            <mxPoint x="790" y="490" as="sourcePoint" />
            <Array as="points">
              <mxPoint x="560" y="490" />
            </Array>
          </mxGeometry>
        </mxCell>
        <mxCell id="HtehHeEMGHA8bfAg62U7-14" value="" style="html=1;points=[];perimeter=orthogonalPerimeter;outlineConnect=0;targetShapes=umlLifeline;portConstraint=eastwest;newEdgeStyle={&quot;edgeStyle&quot;:&quot;elbowEdgeStyle&quot;,&quot;elbow&quot;:&quot;vertical&quot;,&quot;curved&quot;:0,&quot;rounded&quot;:0};" parent="1" vertex="1">
          <mxGeometry x="800" y="350" width="10" height="40" as="geometry" />
        </mxCell>
        <mxCell id="HtehHeEMGHA8bfAg62U7-15" value="&lt;br&gt;&amp;nbsp; &amp;nbsp; ios_deivces = call appcenter api&lt;br&gt;&amp;nbsp; &amp;nbsp; list ios device_sets&lt;br&gt;&amp;nbsp; &amp;nbsp; android_devices = call appcenter api&lt;br&gt;&amp;nbsp; &amp;nbsp; list android device_sets&lt;span style=&quot;white-space: pre;&quot;&gt; &lt;/span&gt;&lt;br&gt;&amp;nbsp; &amp;nbsp; devices = ios_devices + android_devices&lt;br&gt;return devices(include device set) 【device: device_set = 1:n】" style="html=1;align=left;spacingLeft=2;endArrow=block;rounded=0;edgeStyle=orthogonalEdgeStyle;curved=0;rounded=0;" parent="1" target="HtehHeEMGHA8bfAg62U7-14" edge="1">
          <mxGeometry x="0.0118" relative="1" as="geometry">
            <mxPoint x="805" y="330" as="sourcePoint" />
            <Array as="points">
              <mxPoint x="835" y="360" />
            </Array>
            <mxPoint as="offset" />
          </mxGeometry>
        </mxCell>
        <mxCell id="HtehHeEMGHA8bfAg62U7-16" value="list device" style="strokeWidth=1;shadow=0;dashed=0;align=center;html=1;shape=mxgraph.mockup.text.stickyNote2;fontColor=#666666;mainText=;fontSize=17;whiteSpace=wrap;fillColor=#ffffcc;strokeColor=#F62E00;" parent="1" vertex="1">
          <mxGeometry x="70" width="200" height="200" as="geometry" />
        </mxCell>
        <mxCell id="HtehHeEMGHA8bfAg62U7-17" value="make plan" style="strokeWidth=1;shadow=0;dashed=0;align=center;html=1;shape=mxgraph.mockup.text.stickyNote2;fontColor=#666666;mainText=;fontSize=17;whiteSpace=wrap;fillColor=#ffffcc;strokeColor=#F62E00;" parent="1" vertex="1">
          <mxGeometry x="80" y="640" width="200" height="200" as="geometry" />
        </mxCell>
        <mxCell id="HtehHeEMGHA8bfAg62U7-20" style="edgeStyle=orthogonalEdgeStyle;rounded=0;orthogonalLoop=1;jettySize=auto;html=1;" parent="1" source="HtehHeEMGHA8bfAg62U7-19" edge="1">
          <mxGeometry relative="1" as="geometry">
            <mxPoint x="180" y="1280" as="targetPoint" />
          </mxGeometry>
        </mxCell>
        <mxCell id="HtehHeEMGHA8bfAg62U7-19" value="test-site" style="html=1;whiteSpace=wrap;" parent="1" vertex="1">
          <mxGeometry x="80" y="880" width="200" height="40" as="geometry" />
        </mxCell>
        <mxCell id="HtehHeEMGHA8bfAg62U7-21" style="edgeStyle=orthogonalEdgeStyle;rounded=0;orthogonalLoop=1;jettySize=auto;html=1;" parent="1" source="HtehHeEMGHA8bfAg62U7-22" edge="1">
          <mxGeometry relative="1" as="geometry">
            <mxPoint x="540" y="1280" as="targetPoint" />
          </mxGeometry>
        </mxCell>
        <mxCell id="HtehHeEMGHA8bfAg62U7-22" value="test-case-service" style="html=1;whiteSpace=wrap;" parent="1" vertex="1">
          <mxGeometry x="440" y="880" width="200" height="40" as="geometry" />
        </mxCell>
        <mxCell id="HtehHeEMGHA8bfAg62U7-25" value="" style="html=1;points=[];perimeter=orthogonalPerimeter;outlineConnect=0;targetShapes=umlLifeline;portConstraint=eastwest;newEdgeStyle={&quot;edgeStyle&quot;:&quot;elbowEdgeStyle&quot;,&quot;elbow&quot;:&quot;vertical&quot;,&quot;curved&quot;:0,&quot;rounded&quot;:0};" parent="1" vertex="1">
          <mxGeometry x="535" y="960" width="10" height="80" as="geometry" />
        </mxCell>
        <mxCell id="HtehHeEMGHA8bfAg62U7-26" value="make plan" style="html=1;verticalAlign=bottom;endArrow=block;edgeStyle=elbowEdgeStyle;elbow=vertical;curved=0;rounded=0;" parent="1" edge="1">
          <mxGeometry relative="1" as="geometry">
            <mxPoint x="185" y="960" as="sourcePoint" />
            <mxPoint x="535" y="960" as="targetPoint" />
            <mxPoint as="offset" />
          </mxGeometry>
        </mxCell>
        <mxCell id="HtehHeEMGHA8bfAg62U7-27" value="return id" style="html=1;verticalAlign=bottom;endArrow=open;dashed=1;endSize=8;edgeStyle=elbowEdgeStyle;elbow=vertical;curved=0;rounded=0;" parent="1" edge="1">
          <mxGeometry relative="1" as="geometry">
            <mxPoint x="185" y="1039" as="targetPoint" />
            <mxPoint x="535" y="1039" as="sourcePoint" />
          </mxGeometry>
        </mxCell>
        <mxCell id="HtehHeEMGHA8bfAg62U7-28" value="" style="html=1;points=[];perimeter=orthogonalPerimeter;outlineConnect=0;targetShapes=umlLifeline;portConstraint=eastwest;newEdgeStyle={&quot;edgeStyle&quot;:&quot;elbowEdgeStyle&quot;,&quot;elbow&quot;:&quot;vertical&quot;,&quot;curved&quot;:0,&quot;rounded&quot;:0};" parent="1" vertex="1">
          <mxGeometry x="175" y="960" width="10" height="80" as="geometry" />
        </mxCell>
        <mxCell id="HtehHeEMGHA8bfAg62U7-32" value="" style="html=1;points=[];perimeter=orthogonalPerimeter;outlineConnect=0;targetShapes=umlLifeline;portConstraint=eastwest;newEdgeStyle={&quot;edgeStyle&quot;:&quot;elbowEdgeStyle&quot;,&quot;elbow&quot;:&quot;vertical&quot;,&quot;curved&quot;:0,&quot;rounded&quot;:0};" parent="1" vertex="1">
          <mxGeometry x="540" y="990" width="10" height="40" as="geometry" />
        </mxCell>
        <mxCell id="HtehHeEMGHA8bfAg62U7-33" value="&amp;nbsp;if test_platform ==&amp;nbsp;APP_CENTER&lt;br&gt;then&lt;br&gt;&amp;nbsp; &amp;nbsp; create device set for device task 【device_set : device_set = 1:1 】&lt;br&gt;&amp;nbsp; &amp;nbsp; create tasks（pending）&lt;br&gt;&amp;nbsp; &amp;nbsp; create plan（pending）&lt;br&gt;&amp;nbsp; &amp;nbsp; &amp;nbsp;...&lt;br&gt;&amp;nbsp; &amp;nbsp; start test run on app center (async testing)&lt;br&gt;&amp;nbsp; &amp;nbsp; return plan id" style="html=1;align=left;spacingLeft=2;endArrow=block;rounded=0;edgeStyle=orthogonalEdgeStyle;curved=0;rounded=0;" parent="1" target="HtehHeEMGHA8bfAg62U7-32" edge="1">
          <mxGeometry x="0.0118" relative="1" as="geometry">
            <mxPoint x="545" y="970" as="sourcePoint" />
            <Array as="points">
              <mxPoint x="575" y="1000" />
            </Array>
            <mxPoint as="offset" />
          </mxGeometry>
        </mxCell>
        <mxCell id="HtehHeEMGHA8bfAg62U7-55" value="" style="html=1;points=[];perimeter=orthogonalPerimeter;outlineConnect=0;targetShapes=umlLifeline;portConstraint=eastwest;newEdgeStyle={&quot;edgeStyle&quot;:&quot;elbowEdgeStyle&quot;,&quot;elbow&quot;:&quot;vertical&quot;,&quot;curved&quot;:0,&quot;rounded&quot;:0};" parent="1" vertex="1">
          <mxGeometry x="440" y="370" width="10" height="40" as="geometry" />
        </mxCell>
        <mxCell id="HtehHeEMGHA8bfAg62U7-56" value="if test_platform ==&amp;nbsp;WONDER_AUTO_TEST_LAB&lt;br style=&quot;border-color: var(--border-color);&quot;&gt;then&amp;nbsp;&amp;nbsp;&lt;br style=&quot;border-color: var(--border-color);&quot;&gt;return devices form devices table&lt;br style=&quot;border-color: var(--border-color);&quot;&gt;&lt;br style=&quot;border-color: var(--border-color);&quot;&gt;else if test_platform ==&amp;nbsp;APP_CENTER&lt;br style=&quot;border-color: var(--border-color);&quot;&gt;then&lt;br&gt;return devices from app center" style="html=1;align=left;spacingLeft=2;endArrow=block;rounded=0;edgeStyle=orthogonalEdgeStyle;curved=0;rounded=0;" parent="1" target="HtehHeEMGHA8bfAg62U7-55" edge="1">
          <mxGeometry relative="1" as="geometry">
            <mxPoint x="445" y="350" as="sourcePoint" />
            <Array as="points">
              <mxPoint x="475" y="380" />
            </Array>
          </mxGeometry>
        </mxCell>
        <mxCell id="l7nUQe8xx8lICpBXI8I5-22" style="edgeStyle=orthogonalEdgeStyle;rounded=0;orthogonalLoop=1;jettySize=auto;html=1;" parent="1" source="l7nUQe8xx8lICpBXI8I5-5" edge="1">
          <mxGeometry relative="1" as="geometry">
            <mxPoint x="1100" y="1280" as="targetPoint" />
          </mxGeometry>
        </mxCell>
        <mxCell id="l7nUQe8xx8lICpBXI8I5-5" value="appcenter-service" style="html=1;whiteSpace=wrap;" parent="1" vertex="1">
          <mxGeometry x="1000" y="880" width="200" height="40" as="geometry" />
        </mxCell>
        <mxCell id="l7nUQe8xx8lICpBXI8I5-19" value="" style="html=1;points=[];perimeter=orthogonalPerimeter;outlineConnect=0;targetShapes=umlLifeline;portConstraint=eastwest;newEdgeStyle={&quot;edgeStyle&quot;:&quot;elbowEdgeStyle&quot;,&quot;elbow&quot;:&quot;vertical&quot;,&quot;curved&quot;:0,&quot;rounded&quot;:0};" parent="1" vertex="1">
          <mxGeometry x="535" y="1080" width="10" height="80" as="geometry" />
        </mxCell>
        <mxCell id="l7nUQe8xx8lICpBXI8I5-23" value="" style="html=1;points=[];perimeter=orthogonalPerimeter;outlineConnect=0;targetShapes=umlLifeline;portConstraint=eastwest;newEdgeStyle={&quot;edgeStyle&quot;:&quot;elbowEdgeStyle&quot;,&quot;elbow&quot;:&quot;vertical&quot;,&quot;curved&quot;:0,&quot;rounded&quot;:0};" parent="1" vertex="1">
          <mxGeometry x="1095" y="1080" width="10" height="80" as="geometry" />
        </mxCell>
        <mxCell id="l7nUQe8xx8lICpBXI8I5-24" value="start test run&amp;nbsp;" style="html=1;verticalAlign=bottom;endArrow=block;edgeStyle=elbowEdgeStyle;elbow=vertical;curved=0;rounded=0;" parent="1" target="l7nUQe8xx8lICpBXI8I5-23" edge="1">
          <mxGeometry relative="1" as="geometry">
            <mxPoint x="550" y="1090" as="sourcePoint" />
          </mxGeometry>
        </mxCell>
        <mxCell id="l7nUQe8xx8lICpBXI8I5-25" value="return" style="html=1;verticalAlign=bottom;endArrow=open;dashed=1;endSize=8;edgeStyle=elbowEdgeStyle;elbow=vertical;curved=0;rounded=0;" parent="1" source="l7nUQe8xx8lICpBXI8I5-23" target="l7nUQe8xx8lICpBXI8I5-19" edge="1">
          <mxGeometry relative="1" as="geometry">
            <mxPoint x="1025" y="1155" as="targetPoint" />
          </mxGeometry>
        </mxCell>
        <mxCell id="l7nUQe8xx8lICpBXI8I5-26" value="" style="html=1;points=[];perimeter=orthogonalPerimeter;outlineConnect=0;targetShapes=umlLifeline;portConstraint=eastwest;newEdgeStyle={&quot;edgeStyle&quot;:&quot;elbowEdgeStyle&quot;,&quot;elbow&quot;:&quot;vertical&quot;,&quot;curved&quot;:0,&quot;rounded&quot;:0};" parent="1" vertex="1">
          <mxGeometry x="1105" y="1100" width="10" height="40" as="geometry" />
        </mxCell>
        <mxCell id="l7nUQe8xx8lICpBXI8I5-27" value="(https://learn.microsoft.com/en-us/appcenter/test-cloud/starting-a-test-run)" style="html=1;align=left;spacingLeft=2;endArrow=block;rounded=0;edgeStyle=orthogonalEdgeStyle;curved=0;rounded=0;" parent="1" target="l7nUQe8xx8lICpBXI8I5-26" edge="1">
          <mxGeometry relative="1" as="geometry">
            <mxPoint x="1110" y="1080" as="sourcePoint" />
            <Array as="points">
              <mxPoint x="1140" y="1110" />
            </Array>
          </mxGeometry>
        </mxCell>
      </root>
    </mxGraphModel>
  </diagram>
  <diagram id="by7e8xgBiTchcfkUsFQj" name="run executor">
    <mxGraphModel dx="954" dy="519" grid="1" gridSize="10" guides="1" tooltips="1" connect="1" arrows="1" fold="1" page="1" pageScale="1" pageWidth="827" pageHeight="1169" math="0" shadow="0">
      <root>
        <mxCell id="0" />
        <mxCell id="1" parent="0" />
        <mxCell id="H7H6Bg3UaEgxtoPmKEsK-3" style="edgeStyle=orthogonalEdgeStyle;rounded=0;orthogonalLoop=1;jettySize=auto;html=1;" parent="1" source="eZQlFd-gKHO3wskhtQ-G-1" edge="1">
          <mxGeometry relative="1" as="geometry">
            <mxPoint x="95" y="1160" as="targetPoint" />
          </mxGeometry>
        </mxCell>
        <mxCell id="eZQlFd-gKHO3wskhtQ-G-1" value="test-daemon" style="html=1;whiteSpace=wrap;" parent="1" vertex="1">
          <mxGeometry x="15" y="170" width="160" height="40" as="geometry" />
        </mxCell>
        <mxCell id="eZQlFd-gKHO3wskhtQ-G-5" style="edgeStyle=orthogonalEdgeStyle;rounded=0;orthogonalLoop=1;jettySize=auto;html=1;" parent="1" source="eZQlFd-gKHO3wskhtQ-G-2" edge="1">
          <mxGeometry relative="1" as="geometry">
            <mxPoint x="400" y="1050" as="targetPoint" />
          </mxGeometry>
        </mxCell>
        <mxCell id="eZQlFd-gKHO3wskhtQ-G-2" value="test-api" style="html=1;whiteSpace=wrap;" parent="1" vertex="1">
          <mxGeometry x="320" y="170" width="160" height="40" as="geometry" />
        </mxCell>
        <mxCell id="eZQlFd-gKHO3wskhtQ-G-6" style="edgeStyle=orthogonalEdgeStyle;rounded=0;orthogonalLoop=1;jettySize=auto;html=1;" parent="1" source="eZQlFd-gKHO3wskhtQ-G-3" edge="1">
          <mxGeometry relative="1" as="geometry">
            <mxPoint x="720" y="1050" as="targetPoint" />
          </mxGeometry>
        </mxCell>
        <mxCell id="eZQlFd-gKHO3wskhtQ-G-3" value="test-executor" style="html=1;whiteSpace=wrap;" parent="1" vertex="1">
          <mxGeometry x="640" y="170" width="160" height="40" as="geometry" />
        </mxCell>
        <mxCell id="eZQlFd-gKHO3wskhtQ-G-7" value="" style="html=1;points=[];perimeter=orthogonalPerimeter;outlineConnect=0;targetShapes=umlLifeline;portConstraint=eastwest;newEdgeStyle={&quot;edgeStyle&quot;:&quot;elbowEdgeStyle&quot;,&quot;elbow&quot;:&quot;vertical&quot;,&quot;curved&quot;:0,&quot;rounded&quot;:0};" parent="1" vertex="1">
          <mxGeometry x="395" y="250" width="10" height="80" as="geometry" />
        </mxCell>
        <mxCell id="eZQlFd-gKHO3wskhtQ-G-8" value="ExecutorCaseAJAXWebService.next(device_model)" style="html=1;verticalAlign=bottom;endArrow=block;edgeStyle=elbowEdgeStyle;elbow=vertical;curved=0;rounded=0;" parent="1" edge="1">
          <mxGeometry x="-0.0016" relative="1" as="geometry">
            <mxPoint x="100" y="250" as="sourcePoint" />
            <mxPoint x="395" y="250" as="targetPoint" />
            <Array as="points">
              <mxPoint x="130" y="250" />
            </Array>
            <mxPoint as="offset" />
          </mxGeometry>
        </mxCell>
        <mxCell id="eZQlFd-gKHO3wskhtQ-G-9" value="return&amp;nbsp;executor_case" style="html=1;verticalAlign=bottom;endArrow=open;dashed=1;endSize=8;edgeStyle=elbowEdgeStyle;elbow=horizontal;curved=0;rounded=0;entryX=1;entryY=0.989;entryDx=0;entryDy=0;entryPerimeter=0;" parent="1" target="eZQlFd-gKHO3wskhtQ-G-10" edge="1">
          <mxGeometry relative="1" as="geometry">
            <mxPoint x="125" y="329.1308695652175" as="targetPoint" />
            <mxPoint x="395" y="329.1308695652175" as="sourcePoint" />
          </mxGeometry>
        </mxCell>
        <mxCell id="eZQlFd-gKHO3wskhtQ-G-10" value="" style="html=1;points=[];perimeter=orthogonalPerimeter;outlineConnect=0;targetShapes=umlLifeline;portConstraint=eastwest;newEdgeStyle={&quot;edgeStyle&quot;:&quot;elbowEdgeStyle&quot;,&quot;elbow&quot;:&quot;vertical&quot;,&quot;curved&quot;:0,&quot;rounded&quot;:0};" parent="1" vertex="1">
          <mxGeometry x="90" y="250" width="10" height="80" as="geometry" />
        </mxCell>
        <mxCell id="eZQlFd-gKHO3wskhtQ-G-12" value="" style="html=1;points=[];perimeter=orthogonalPerimeter;outlineConnect=0;targetShapes=umlLifeline;portConstraint=eastwest;newEdgeStyle={&quot;edgeStyle&quot;:&quot;elbowEdgeStyle&quot;,&quot;elbow&quot;:&quot;vertical&quot;,&quot;curved&quot;:0,&quot;rounded&quot;:0};" parent="1" vertex="1">
          <mxGeometry x="715" y="370" width="10" height="80" as="geometry" />
        </mxCell>
        <mxCell id="eZQlFd-gKHO3wskhtQ-G-13" value="Run Executor By CLI" style="html=1;verticalAlign=bottom;endArrow=block;edgeStyle=elbowEdgeStyle;elbow=horizontal;curved=0;rounded=0;" parent="1" edge="1">
          <mxGeometry relative="1" as="geometry">
            <mxPoint x="101" y="372.2608695652175" as="sourcePoint" />
            <mxPoint x="716" y="372.2608695652175" as="targetPoint" />
          </mxGeometry>
        </mxCell>
        <mxCell id="eZQlFd-gKHO3wskhtQ-G-17" value="" style="html=1;points=[];perimeter=orthogonalPerimeter;outlineConnect=0;targetShapes=umlLifeline;portConstraint=eastwest;newEdgeStyle={&quot;edgeStyle&quot;:&quot;elbowEdgeStyle&quot;,&quot;elbow&quot;:&quot;vertical&quot;,&quot;curved&quot;:0,&quot;rounded&quot;:0};" parent="1" vertex="1">
          <mxGeometry x="90" y="370" width="10" height="80" as="geometry" />
        </mxCell>
        <mxCell id="eZQlFd-gKHO3wskhtQ-G-20" value="" style="html=1;points=[];perimeter=orthogonalPerimeter;outlineConnect=0;targetShapes=umlLifeline;portConstraint=eastwest;newEdgeStyle={&quot;edgeStyle&quot;:&quot;elbowEdgeStyle&quot;,&quot;elbow&quot;:&quot;vertical&quot;,&quot;curved&quot;:0,&quot;rounded&quot;:0};" parent="1" vertex="1">
          <mxGeometry x="715" y="530" width="10" height="80" as="geometry" />
        </mxCell>
        <mxCell id="eZQlFd-gKHO3wskhtQ-G-21" value="ExecutorCaseAJAXWebService.nextForTest(device_task_id)" style="html=1;verticalAlign=bottom;endArrow=block;edgeStyle=elbowEdgeStyle;elbow=vertical;curved=0;rounded=0;exitX=0.5;exitY=0.5;exitDx=0;exitDy=0;exitPerimeter=0;" parent="1" edge="1">
          <mxGeometry x="-0.0007" relative="1" as="geometry">
            <mxPoint x="720" y="529.9999999999999" as="sourcePoint" />
            <mxPoint x="405" y="529.9999999999999" as="targetPoint" />
            <Array as="points">
              <mxPoint x="510" y="530" />
            </Array>
            <mxPoint as="offset" />
          </mxGeometry>
        </mxCell>
        <mxCell id="eZQlFd-gKHO3wskhtQ-G-22" value="return&amp;nbsp;executor_case" style="html=1;verticalAlign=bottom;endArrow=open;dashed=1;endSize=8;edgeStyle=elbowEdgeStyle;elbow=vertical;curved=0;rounded=0;" parent="1" edge="1">
          <mxGeometry x="-0.0068" relative="1" as="geometry">
            <mxPoint x="405" y="608.2608695652175" as="targetPoint" />
            <mxPoint x="715" y="608.2608695652175" as="sourcePoint" />
            <mxPoint as="offset" />
          </mxGeometry>
        </mxCell>
        <mxCell id="eZQlFd-gKHO3wskhtQ-G-23" value="" style="html=1;points=[];perimeter=orthogonalPerimeter;outlineConnect=0;targetShapes=umlLifeline;portConstraint=eastwest;newEdgeStyle={&quot;edgeStyle&quot;:&quot;elbowEdgeStyle&quot;,&quot;elbow&quot;:&quot;vertical&quot;,&quot;curved&quot;:0,&quot;rounded&quot;:0};" parent="1" vertex="1">
          <mxGeometry x="395" y="530" width="10" height="80" as="geometry" />
        </mxCell>
        <mxCell id="eZQlFd-gKHO3wskhtQ-G-24" value="" style="html=1;points=[];perimeter=orthogonalPerimeter;outlineConnect=0;targetShapes=umlLifeline;portConstraint=eastwest;newEdgeStyle={&quot;edgeStyle&quot;:&quot;elbowEdgeStyle&quot;,&quot;elbow&quot;:&quot;vertical&quot;,&quot;curved&quot;:0,&quot;rounded&quot;:0};" parent="1" vertex="1">
          <mxGeometry x="715" y="690" width="10" height="80" as="geometry" />
        </mxCell>
        <mxCell id="eZQlFd-gKHO3wskhtQ-G-25" value="ExecutorCaseAJAXWebService.testing()" style="html=1;verticalAlign=bottom;endArrow=block;edgeStyle=elbowEdgeStyle;elbow=vertical;curved=0;rounded=0;" parent="1" source="eZQlFd-gKHO3wskhtQ-G-24" target="eZQlFd-gKHO3wskhtQ-G-27" edge="1">
          <mxGeometry relative="1" as="geometry">
            <mxPoint x="405" y="690.3913043478262" as="sourcePoint" />
            <mxPoint x="430" y="730" as="targetPoint" />
          </mxGeometry>
        </mxCell>
        <mxCell id="eZQlFd-gKHO3wskhtQ-G-27" value="" style="html=1;points=[];perimeter=orthogonalPerimeter;outlineConnect=0;targetShapes=umlLifeline;portConstraint=eastwest;newEdgeStyle={&quot;edgeStyle&quot;:&quot;elbowEdgeStyle&quot;,&quot;elbow&quot;:&quot;vertical&quot;,&quot;curved&quot;:0,&quot;rounded&quot;:0};" parent="1" vertex="1">
          <mxGeometry x="395" y="689" width="10" height="80" as="geometry" />
        </mxCell>
        <mxCell id="eZQlFd-gKHO3wskhtQ-G-28" value="" style="html=1;points=[];perimeter=orthogonalPerimeter;outlineConnect=0;targetShapes=umlLifeline;portConstraint=eastwest;newEdgeStyle={&quot;edgeStyle&quot;:&quot;elbowEdgeStyle&quot;,&quot;elbow&quot;:&quot;vertical&quot;,&quot;curved&quot;:0,&quot;rounded&quot;:0};" parent="1" vertex="1">
          <mxGeometry x="715" y="810" width="10" height="80" as="geometry" />
        </mxCell>
        <mxCell id="eZQlFd-gKHO3wskhtQ-G-29" value="ReportTestResultController.execute()" style="html=1;verticalAlign=bottom;endArrow=block;edgeStyle=elbowEdgeStyle;elbow=vertical;curved=0;rounded=0;" parent="1" edge="1">
          <mxGeometry x="-0.0182" relative="1" as="geometry">
            <mxPoint x="715" y="840" as="sourcePoint" />
            <mxPoint x="405" y="840" as="targetPoint" />
            <Array as="points">
              <mxPoint x="440" y="840" />
            </Array>
            <mxPoint as="offset" />
          </mxGeometry>
        </mxCell>
        <mxCell id="eZQlFd-gKHO3wskhtQ-G-33" value="" style="html=1;points=[];perimeter=orthogonalPerimeter;outlineConnect=0;targetShapes=umlLifeline;portConstraint=eastwest;newEdgeStyle={&quot;edgeStyle&quot;:&quot;elbowEdgeStyle&quot;,&quot;elbow&quot;:&quot;vertical&quot;,&quot;curved&quot;:0,&quot;rounded&quot;:0};" parent="1" vertex="1">
          <mxGeometry x="395" y="810" width="10" height="80" as="geometry" />
        </mxCell>
        <mxCell id="H7H6Bg3UaEgxtoPmKEsK-1" value="run executor by test-daemon" style="strokeWidth=1;shadow=0;dashed=0;align=center;html=1;shape=mxgraph.mockup.text.stickyNote2;fontColor=#666666;mainText=;fontSize=17;whiteSpace=wrap;fillColor=#ffffcc;strokeColor=#F62E00;" parent="1" vertex="1">
          <mxGeometry x="15" y="10" width="325" height="120" as="geometry" />
        </mxCell>
        <mxCell id="H7H6Bg3UaEgxtoPmKEsK-2" value="run executor by app center" style="strokeWidth=1;shadow=0;dashed=0;align=center;html=1;shape=mxgraph.mockup.text.stickyNote2;fontColor=#666666;mainText=;fontSize=17;whiteSpace=wrap;fillColor=#ffffcc;strokeColor=#F62E00;" parent="1" vertex="1">
          <mxGeometry x="860" y="10" width="325" height="120" as="geometry" />
        </mxCell>
        <mxCell id="H7H6Bg3UaEgxtoPmKEsK-8" style="edgeStyle=orthogonalEdgeStyle;rounded=0;orthogonalLoop=1;jettySize=auto;html=1;" parent="1" source="H7H6Bg3UaEgxtoPmKEsK-4" edge="1">
          <mxGeometry relative="1" as="geometry">
            <mxPoint x="1241" y="640" as="targetPoint" />
          </mxGeometry>
        </mxCell>
        <mxCell id="H7H6Bg3UaEgxtoPmKEsK-4" value="test-api" style="html=1;whiteSpace=wrap;" parent="1" vertex="1">
          <mxGeometry x="1161" y="161" width="160" height="39" as="geometry" />
        </mxCell>
        <mxCell id="H7H6Bg3UaEgxtoPmKEsK-9" style="edgeStyle=orthogonalEdgeStyle;rounded=0;orthogonalLoop=1;jettySize=auto;html=1;" parent="1" source="H7H6Bg3UaEgxtoPmKEsK-5" edge="1">
          <mxGeometry relative="1" as="geometry">
            <mxPoint x="1520" y="640" as="targetPoint" />
          </mxGeometry>
        </mxCell>
        <mxCell id="H7H6Bg3UaEgxtoPmKEsK-5" value="test-executor" style="html=1;whiteSpace=wrap;" parent="1" vertex="1">
          <mxGeometry x="1440" y="161" width="160" height="39" as="geometry" />
        </mxCell>
        <mxCell id="H7H6Bg3UaEgxtoPmKEsK-7" style="edgeStyle=orthogonalEdgeStyle;rounded=0;orthogonalLoop=1;jettySize=auto;html=1;" parent="1" source="H7H6Bg3UaEgxtoPmKEsK-6" edge="1">
          <mxGeometry relative="1" as="geometry">
            <mxPoint x="960" y="640" as="targetPoint" />
          </mxGeometry>
        </mxCell>
        <mxCell id="H7H6Bg3UaEgxtoPmKEsK-6" value="app center" style="html=1;whiteSpace=wrap;" parent="1" vertex="1">
          <mxGeometry x="880" y="161" width="160" height="39" as="geometry" />
        </mxCell>
        <mxCell id="H7H6Bg3UaEgxtoPmKEsK-12" value="" style="html=1;points=[];perimeter=orthogonalPerimeter;outlineConnect=0;targetShapes=umlLifeline;portConstraint=eastwest;newEdgeStyle={&quot;edgeStyle&quot;:&quot;elbowEdgeStyle&quot;,&quot;elbow&quot;:&quot;vertical&quot;,&quot;curved&quot;:0,&quot;rounded&quot;:0};" parent="1" vertex="1">
          <mxGeometry x="955" y="240" width="10" height="80" as="geometry" />
        </mxCell>
        <mxCell id="H7H6Bg3UaEgxtoPmKEsK-13" value="" style="html=1;points=[];perimeter=orthogonalPerimeter;outlineConnect=0;targetShapes=umlLifeline;portConstraint=eastwest;newEdgeStyle={&quot;edgeStyle&quot;:&quot;elbowEdgeStyle&quot;,&quot;elbow&quot;:&quot;vertical&quot;,&quot;curved&quot;:0,&quot;rounded&quot;:0};" parent="1" vertex="1">
          <mxGeometry x="1515" y="240" width="10" height="80" as="geometry" />
        </mxCell>
        <mxCell id="H7H6Bg3UaEgxtoPmKEsK-14" value="dispatch" style="html=1;verticalAlign=bottom;endArrow=block;edgeStyle=elbowEdgeStyle;elbow=vertical;curved=0;rounded=0;" parent="1" source="H7H6Bg3UaEgxtoPmKEsK-12" target="H7H6Bg3UaEgxtoPmKEsK-13" edge="1">
          <mxGeometry relative="1" as="geometry">
            <mxPoint x="970" y="240" as="sourcePoint" />
            <Array as="points">
              <mxPoint x="1120" y="250" />
            </Array>
          </mxGeometry>
        </mxCell>
        <mxCell id="H7H6Bg3UaEgxtoPmKEsK-15" value="return" style="html=1;verticalAlign=bottom;endArrow=open;dashed=1;endSize=8;edgeStyle=elbowEdgeStyle;elbow=vertical;curved=0;rounded=0;" parent="1" edge="1">
          <mxGeometry relative="1" as="geometry">
            <mxPoint x="965" y="318.9411764705883" as="targetPoint" />
            <mxPoint x="1515" y="318.9411764705883" as="sourcePoint" />
          </mxGeometry>
        </mxCell>
      </root>
    </mxGraphModel>
  </diagram>
  <diagram id="b4enGOG55giZ3nJEVqH5" name="flow">
    <mxGraphModel dx="1193" dy="630" grid="1" gridSize="10" guides="1" tooltips="1" connect="1" arrows="1" fold="1" page="1" pageScale="1" pageWidth="827" pageHeight="1169" math="0" shadow="0">
      <root>
        <mxCell id="0" />
        <mxCell id="1" parent="0" />
        <mxCell id="rSu7XUpIxd5FarssE1HG-11" style="edgeStyle=orthogonalEdgeStyle;rounded=0;orthogonalLoop=1;jettySize=auto;html=1;" parent="1" source="rSu7XUpIxd5FarssE1HG-2" target="rSu7XUpIxd5FarssE1HG-3" edge="1">
          <mxGeometry relative="1" as="geometry" />
        </mxCell>
        <mxCell id="rSu7XUpIxd5FarssE1HG-2" value="start" style="ellipse;whiteSpace=wrap;html=1;" parent="1" vertex="1">
          <mxGeometry x="160" y="80" width="120" height="80" as="geometry" />
        </mxCell>
        <mxCell id="XCllAcr3G2WZyMMh900x-3" style="edgeStyle=orthogonalEdgeStyle;rounded=0;orthogonalLoop=1;jettySize=auto;html=1;entryX=0.5;entryY=0;entryDx=0;entryDy=0;" edge="1" parent="1" source="rSu7XUpIxd5FarssE1HG-3" target="XCllAcr3G2WZyMMh900x-1">
          <mxGeometry relative="1" as="geometry" />
        </mxCell>
        <mxCell id="rSu7XUpIxd5FarssE1HG-3" value="receive CLI params" style="rounded=0;whiteSpace=wrap;html=1;fontColor=#FF0000;" parent="1" vertex="1">
          <mxGeometry x="160" y="200" width="120" height="40" as="geometry" />
        </mxCell>
        <mxCell id="rSu7XUpIxd5FarssE1HG-14" style="edgeStyle=orthogonalEdgeStyle;rounded=0;orthogonalLoop=1;jettySize=auto;html=1;exitX=0.5;exitY=1;exitDx=0;exitDy=0;entryX=0.5;entryY=0;entryDx=0;entryDy=0;" parent="1" source="rSu7XUpIxd5FarssE1HG-4" target="rSu7XUpIxd5FarssE1HG-5" edge="1">
          <mxGeometry relative="1" as="geometry" />
        </mxCell>
        <mxCell id="rSu7XUpIxd5FarssE1HG-4" value="pull case&amp;nbsp;" style="whiteSpace=wrap;html=1;rounded=0;fontColor=#FF0000;" parent="1" vertex="1">
          <mxGeometry x="160" y="580" width="120" height="60" as="geometry" />
        </mxCell>
        <mxCell id="rSu7XUpIxd5FarssE1HG-15" style="edgeStyle=orthogonalEdgeStyle;rounded=0;orthogonalLoop=1;jettySize=auto;html=1;entryX=0.5;entryY=0;entryDx=0;entryDy=0;" parent="1" source="rSu7XUpIxd5FarssE1HG-5" target="rSu7XUpIxd5FarssE1HG-6" edge="1">
          <mxGeometry relative="1" as="geometry" />
        </mxCell>
        <mxCell id="rSu7XUpIxd5FarssE1HG-5" value="report testing case" style="whiteSpace=wrap;html=1;rounded=0;fontColor=#FF0000;" parent="1" vertex="1">
          <mxGeometry x="160" y="690" width="120" height="60" as="geometry" />
        </mxCell>
        <mxCell id="rSu7XUpIxd5FarssE1HG-16" style="edgeStyle=orthogonalEdgeStyle;rounded=0;orthogonalLoop=1;jettySize=auto;html=1;exitX=0.5;exitY=1;exitDx=0;exitDy=0;entryX=0.5;entryY=0;entryDx=0;entryDy=0;" parent="1" source="rSu7XUpIxd5FarssE1HG-6" target="rSu7XUpIxd5FarssE1HG-9" edge="1">
          <mxGeometry relative="1" as="geometry" />
        </mxCell>
        <mxCell id="rSu7XUpIxd5FarssE1HG-6" value="run case" style="whiteSpace=wrap;html=1;rounded=0;" parent="1" vertex="1">
          <mxGeometry x="160" y="780" width="120" height="60" as="geometry" />
        </mxCell>
        <mxCell id="rSu7XUpIxd5FarssE1HG-25" style="edgeStyle=orthogonalEdgeStyle;rounded=0;orthogonalLoop=1;jettySize=auto;html=1;entryX=1;entryY=0.5;entryDx=0;entryDy=0;" parent="1" source="rSu7XUpIxd5FarssE1HG-9" target="rSu7XUpIxd5FarssE1HG-20" edge="1">
          <mxGeometry relative="1" as="geometry">
            <Array as="points">
              <mxPoint x="350" y="880" />
              <mxPoint x="350" y="480" />
            </Array>
          </mxGeometry>
        </mxCell>
        <mxCell id="rSu7XUpIxd5FarssE1HG-9" value="upload test result" style="whiteSpace=wrap;html=1;rounded=0;" parent="1" vertex="1">
          <mxGeometry x="160" y="870" width="120" height="60" as="geometry" />
        </mxCell>
        <mxCell id="rSu7XUpIxd5FarssE1HG-12" value="end" style="ellipse;whiteSpace=wrap;html=1;" parent="1" vertex="1">
          <mxGeometry x="160" y="950" width="120" height="80" as="geometry" />
        </mxCell>
        <mxCell id="rSu7XUpIxd5FarssE1HG-21" value="no" style="edgeStyle=orthogonalEdgeStyle;rounded=0;orthogonalLoop=1;jettySize=auto;html=1;entryX=0;entryY=0.5;entryDx=0;entryDy=0;" parent="1" source="rSu7XUpIxd5FarssE1HG-20" target="rSu7XUpIxd5FarssE1HG-12" edge="1">
          <mxGeometry relative="1" as="geometry">
            <mxPoint x="80" y="1000" as="targetPoint" />
            <Array as="points">
              <mxPoint x="60" y="480" />
              <mxPoint x="60" y="990" />
            </Array>
          </mxGeometry>
        </mxCell>
        <mxCell id="rSu7XUpIxd5FarssE1HG-23" style="edgeStyle=orthogonalEdgeStyle;rounded=0;orthogonalLoop=1;jettySize=auto;html=1;exitX=0.5;exitY=1;exitDx=0;exitDy=0;entryX=0.5;entryY=0;entryDx=0;entryDy=0;" parent="1" source="rSu7XUpIxd5FarssE1HG-20" target="rSu7XUpIxd5FarssE1HG-4" edge="1">
          <mxGeometry relative="1" as="geometry" />
        </mxCell>
        <mxCell id="rSu7XUpIxd5FarssE1HG-24" value="yes" style="edgeLabel;html=1;align=center;verticalAlign=middle;resizable=0;points=[];" parent="rSu7XUpIxd5FarssE1HG-23" vertex="1" connectable="0">
          <mxGeometry x="-0.2667" y="-1" relative="1" as="geometry">
            <mxPoint as="offset" />
          </mxGeometry>
        </mxCell>
        <mxCell id="rSu7XUpIxd5FarssE1HG-20" value="has next case?" style="rhombus;whiteSpace=wrap;html=1;fontColor=#FF0000;" parent="1" vertex="1">
          <mxGeometry x="180" y="440" width="80" height="80" as="geometry" />
        </mxCell>
        <mxCell id="rSu7XUpIxd5FarssE1HG-33" style="edgeStyle=orthogonalEdgeStyle;rounded=0;orthogonalLoop=1;jettySize=auto;html=1;exitX=0.5;exitY=1;exitDx=0;exitDy=0;entryX=0.5;entryY=0;entryDx=0;entryDy=0;" parent="1" source="rSu7XUpIxd5FarssE1HG-26" target="rSu7XUpIxd5FarssE1HG-27" edge="1">
          <mxGeometry relative="1" as="geometry" />
        </mxCell>
        <mxCell id="rSu7XUpIxd5FarssE1HG-26" value="start" style="ellipse;whiteSpace=wrap;html=1;" parent="1" vertex="1">
          <mxGeometry x="920" y="180" width="120" height="80" as="geometry" />
        </mxCell>
        <mxCell id="XCllAcr3G2WZyMMh900x-20" style="edgeStyle=orthogonalEdgeStyle;rounded=0;orthogonalLoop=1;jettySize=auto;html=1;entryX=0.5;entryY=0;entryDx=0;entryDy=0;" edge="1" parent="1" source="rSu7XUpIxd5FarssE1HG-27" target="rSu7XUpIxd5FarssE1HG-34">
          <mxGeometry relative="1" as="geometry" />
        </mxCell>
        <mxCell id="rSu7XUpIxd5FarssE1HG-27" value="find device_model from system variable" style="rounded=0;whiteSpace=wrap;html=1;" parent="1" vertex="1">
          <mxGeometry x="840" y="310" width="280" height="50" as="geometry" />
        </mxCell>
        <mxCell id="rSu7XUpIxd5FarssE1HG-31" value="end" style="ellipse;whiteSpace=wrap;html=1;" parent="1" vertex="1">
          <mxGeometry x="920" y="720" width="120" height="80" as="geometry" />
        </mxCell>
        <mxCell id="XCllAcr3G2WZyMMh900x-21" style="edgeStyle=orthogonalEdgeStyle;rounded=0;orthogonalLoop=1;jettySize=auto;html=1;exitX=0.5;exitY=1;exitDx=0;exitDy=0;entryX=0.5;entryY=0;entryDx=0;entryDy=0;" edge="1" parent="1" source="rSu7XUpIxd5FarssE1HG-34" target="XCllAcr3G2WZyMMh900x-19">
          <mxGeometry relative="1" as="geometry" />
        </mxCell>
        <mxCell id="rSu7XUpIxd5FarssE1HG-34" value="find device_task&lt;br style=&quot;border-color: var(--border-color);&quot;&gt;&amp;nbsp;by device_model &amp;amp; test_platform&amp;nbsp;" style="rounded=0;whiteSpace=wrap;html=1;" parent="1" vertex="1">
          <mxGeometry x="840" y="420" width="280" height="40" as="geometry" />
        </mxCell>
        <mxCell id="XCllAcr3G2WZyMMh900x-56" value="" style="edgeStyle=orthogonalEdgeStyle;rounded=0;orthogonalLoop=1;jettySize=auto;html=1;" edge="1" parent="1" source="XCllAcr3G2WZyMMh900x-1" target="XCllAcr3G2WZyMMh900x-55">
          <mxGeometry relative="1" as="geometry" />
        </mxCell>
        <mxCell id="XCllAcr3G2WZyMMh900x-1" value="connect appium" style="rounded=0;whiteSpace=wrap;html=1;fontColor=#000000;" vertex="1" parent="1">
          <mxGeometry x="160" y="280" width="120" height="40" as="geometry" />
        </mxCell>
        <mxCell id="XCllAcr3G2WZyMMh900x-7" value="" style="edgeStyle=orthogonalEdgeStyle;rounded=0;orthogonalLoop=1;jettySize=auto;html=1;" edge="1" parent="1" source="XCllAcr3G2WZyMMh900x-5" target="XCllAcr3G2WZyMMh900x-6">
          <mxGeometry relative="1" as="geometry" />
        </mxCell>
        <mxCell id="XCllAcr3G2WZyMMh900x-5" value="start" style="ellipse;whiteSpace=wrap;html=1;" vertex="1" parent="1">
          <mxGeometry x="1310" y="80" width="120" height="80" as="geometry" />
        </mxCell>
        <mxCell id="XCllAcr3G2WZyMMh900x-9" value="" style="edgeStyle=orthogonalEdgeStyle;rounded=0;orthogonalLoop=1;jettySize=auto;html=1;" edge="1" parent="1" source="XCllAcr3G2WZyMMh900x-6" target="XCllAcr3G2WZyMMh900x-8">
          <mxGeometry relative="1" as="geometry" />
        </mxCell>
        <mxCell id="XCllAcr3G2WZyMMh900x-6" value="make plan" style="whiteSpace=wrap;html=1;" vertex="1" parent="1">
          <mxGeometry x="1310" y="250" width="120" height="60" as="geometry" />
        </mxCell>
        <mxCell id="XCllAcr3G2WZyMMh900x-11" value="" style="edgeStyle=orthogonalEdgeStyle;rounded=0;orthogonalLoop=1;jettySize=auto;html=1;" edge="1" parent="1" source="XCllAcr3G2WZyMMh900x-8" target="XCllAcr3G2WZyMMh900x-10">
          <mxGeometry relative="1" as="geometry" />
        </mxCell>
        <mxCell id="XCllAcr3G2WZyMMh900x-8" value="make device task" style="whiteSpace=wrap;html=1;" vertex="1" parent="1">
          <mxGeometry x="1310" y="390" width="120" height="60" as="geometry" />
        </mxCell>
        <mxCell id="XCllAcr3G2WZyMMh900x-13" value="" style="edgeStyle=orthogonalEdgeStyle;rounded=0;orthogonalLoop=1;jettySize=auto;html=1;" edge="1" parent="1" source="XCllAcr3G2WZyMMh900x-10" target="XCllAcr3G2WZyMMh900x-12">
          <mxGeometry relative="1" as="geometry" />
        </mxCell>
        <mxCell id="XCllAcr3G2WZyMMh900x-10" value="download app from app center" style="whiteSpace=wrap;html=1;" vertex="1" parent="1">
          <mxGeometry x="1310" y="530" width="120" height="60" as="geometry" />
        </mxCell>
        <mxCell id="XCllAcr3G2WZyMMh900x-15" value="" style="edgeStyle=orthogonalEdgeStyle;rounded=0;orthogonalLoop=1;jettySize=auto;html=1;" edge="1" parent="1" source="XCllAcr3G2WZyMMh900x-12" target="XCllAcr3G2WZyMMh900x-14">
          <mxGeometry relative="1" as="geometry" />
        </mxCell>
        <mxCell id="XCllAcr3G2WZyMMh900x-12" value="Use maven to package the executor into a JAR package" style="whiteSpace=wrap;html=1;" vertex="1" parent="1">
          <mxGeometry x="1310" y="670" width="120" height="60" as="geometry" />
        </mxCell>
        <mxCell id="XCllAcr3G2WZyMMh900x-18" style="edgeStyle=orthogonalEdgeStyle;rounded=0;orthogonalLoop=1;jettySize=auto;html=1;entryX=0.5;entryY=0;entryDx=0;entryDy=0;" edge="1" parent="1" source="XCllAcr3G2WZyMMh900x-14" target="XCllAcr3G2WZyMMh900x-17">
          <mxGeometry relative="1" as="geometry" />
        </mxCell>
        <mxCell id="XCllAcr3G2WZyMMh900x-14" value="call API to create and start a test run in the app center&amp;nbsp;" style="whiteSpace=wrap;html=1;" vertex="1" parent="1">
          <mxGeometry x="1310" y="810" width="120" height="60" as="geometry" />
        </mxCell>
        <mxCell id="XCllAcr3G2WZyMMh900x-17" value="end" style="ellipse;whiteSpace=wrap;html=1;" vertex="1" parent="1">
          <mxGeometry x="1310" y="920" width="120" height="80" as="geometry" />
        </mxCell>
        <mxCell id="XCllAcr3G2WZyMMh900x-50" style="edgeStyle=orthogonalEdgeStyle;rounded=0;orthogonalLoop=1;jettySize=auto;html=1;" edge="1" parent="1" source="XCllAcr3G2WZyMMh900x-19" target="XCllAcr3G2WZyMMh900x-49">
          <mxGeometry relative="1" as="geometry" />
        </mxCell>
        <mxCell id="XCllAcr3G2WZyMMh900x-19" value="run case one by one&lt;br&gt;（device_task: cases &amp;amp;app_path）" style="rounded=0;whiteSpace=wrap;html=1;" vertex="1" parent="1">
          <mxGeometry x="840" y="520" width="280" height="40" as="geometry" />
        </mxCell>
        <mxCell id="XCllAcr3G2WZyMMh900x-51" style="edgeStyle=orthogonalEdgeStyle;rounded=0;orthogonalLoop=1;jettySize=auto;html=1;entryX=0.5;entryY=0;entryDx=0;entryDy=0;" edge="1" parent="1" source="XCllAcr3G2WZyMMh900x-49" target="rSu7XUpIxd5FarssE1HG-31">
          <mxGeometry relative="1" as="geometry">
            <mxPoint x="970" y="700" as="targetPoint" />
          </mxGeometry>
        </mxCell>
        <mxCell id="XCllAcr3G2WZyMMh900x-49" value="upload test result" style="whiteSpace=wrap;html=1;rounded=0;" vertex="1" parent="1">
          <mxGeometry x="920" y="630" width="120" height="40" as="geometry" />
        </mxCell>
        <mxCell id="XCllAcr3G2WZyMMh900x-57" style="edgeStyle=orthogonalEdgeStyle;rounded=0;orthogonalLoop=1;jettySize=auto;html=1;exitX=0.5;exitY=1;exitDx=0;exitDy=0;entryX=0.5;entryY=0;entryDx=0;entryDy=0;" edge="1" parent="1" source="XCllAcr3G2WZyMMh900x-55" target="rSu7XUpIxd5FarssE1HG-20">
          <mxGeometry relative="1" as="geometry" />
        </mxCell>
        <mxCell id="XCllAcr3G2WZyMMh900x-55" value="install app" style="rounded=0;whiteSpace=wrap;html=1;fontColor=#FF0000;" vertex="1" parent="1">
          <mxGeometry x="160" y="360" width="120" height="40" as="geometry" />
        </mxCell>
        <mxCell id="XCllAcr3G2WZyMMh900x-62" style="edgeStyle=orthogonalEdgeStyle;rounded=0;orthogonalLoop=1;jettySize=auto;html=1;" edge="1" parent="1" source="XCllAcr3G2WZyMMh900x-61">
          <mxGeometry relative="1" as="geometry">
            <mxPoint x="340" y="220" as="targetPoint" />
          </mxGeometry>
        </mxCell>
        <mxCell id="XCllAcr3G2WZyMMh900x-61" value="run executor command:&lt;br&gt;&quot;nohup sh {} executor_lifecycle_id={} http_port={} appium_port={} device_task_id={} device=&#39;{}&#39; pc_id={} app_path={} &amp;gt; {} 2&amp;gt;&amp;amp;1 &amp;amp;&quot;" style="shape=note;whiteSpace=wrap;html=1;backgroundOutline=1;darkOpacity=0.05;" vertex="1" parent="1">
          <mxGeometry x="414" y="187.5" width="400" height="65" as="geometry" />
        </mxCell>
        <mxCell id="XCllAcr3G2WZyMMh900x-65" style="edgeStyle=orthogonalEdgeStyle;rounded=0;orthogonalLoop=1;jettySize=auto;html=1;" edge="1" parent="1" source="XCllAcr3G2WZyMMh900x-63">
          <mxGeometry relative="1" as="geometry">
            <mxPoint x="290" y="385" as="targetPoint" />
          </mxGeometry>
        </mxCell>
        <mxCell id="XCllAcr3G2WZyMMh900x-63" value="The app center will install the app in the assigned device in advance" style="shape=note;whiteSpace=wrap;html=1;backgroundOutline=1;darkOpacity=0.05;" vertex="1" parent="1">
          <mxGeometry x="414" y="350" width="380" height="70" as="geometry" />
        </mxCell>
        <mxCell id="XCllAcr3G2WZyMMh900x-66" style="edgeStyle=orthogonalEdgeStyle;rounded=0;orthogonalLoop=1;jettySize=auto;html=1;" edge="1" parent="1" source="XCllAcr3G2WZyMMh900x-64">
          <mxGeometry relative="1" as="geometry">
            <mxPoint x="360" y="615" as="targetPoint" />
          </mxGeometry>
        </mxCell>
        <mxCell id="XCllAcr3G2WZyMMh900x-64" value="pull task" style="shape=note;whiteSpace=wrap;html=1;backgroundOutline=1;darkOpacity=0.05;" vertex="1" parent="1">
          <mxGeometry x="424" y="580" width="380" height="70" as="geometry" />
        </mxCell>
        <mxCell id="XCllAcr3G2WZyMMh900x-68" style="edgeStyle=orthogonalEdgeStyle;rounded=0;orthogonalLoop=1;jettySize=auto;html=1;" edge="1" parent="1" source="XCllAcr3G2WZyMMh900x-67">
          <mxGeometry relative="1" as="geometry">
            <mxPoint x="360" y="715" as="targetPoint" />
          </mxGeometry>
        </mxCell>
        <mxCell id="XCllAcr3G2WZyMMh900x-67" value="app center不需要，因为本地测试是同类型设备并行，用来监控测试用例是在哪台设备上执行的。" style="shape=note;whiteSpace=wrap;html=1;backgroundOutline=1;darkOpacity=0.05;align=left;" vertex="1" parent="1">
          <mxGeometry x="424" y="680" width="380" height="70" as="geometry" />
        </mxCell>
      </root>
    </mxGraphModel>
  </diagram>
  <diagram id="tq0gjyZ7vJm4Cwzyk7wN" name="make plan ">
    <mxGraphModel dx="2385" dy="1298" grid="1" gridSize="10" guides="1" tooltips="1" connect="1" arrows="1" fold="1" page="1" pageScale="1" pageWidth="827" pageHeight="1169" math="0" shadow="0">
      <root>
        <mxCell id="0" />
        <mxCell id="1" parent="0" />
        <mxCell id="ZMZXslpaEfZ6qWhM_fNA-3" value="" style="edgeStyle=orthogonalEdgeStyle;rounded=0;orthogonalLoop=1;jettySize=auto;html=1;" parent="1" source="ZMZXslpaEfZ6qWhM_fNA-1" target="ZMZXslpaEfZ6qWhM_fNA-2" edge="1">
          <mxGeometry relative="1" as="geometry" />
        </mxCell>
        <mxCell id="ZMZXslpaEfZ6qWhM_fNA-1" value="start" style="ellipse;whiteSpace=wrap;html=1;" parent="1" vertex="1">
          <mxGeometry x="130" y="160" width="120" height="80" as="geometry" />
        </mxCell>
        <mxCell id="SdlOrnX0R3NfmZt9suOI-2" value="" style="edgeStyle=orthogonalEdgeStyle;rounded=0;orthogonalLoop=1;jettySize=auto;html=1;" parent="1" source="ZMZXslpaEfZ6qWhM_fNA-2" target="SdlOrnX0R3NfmZt9suOI-1" edge="1">
          <mxGeometry relative="1" as="geometry" />
        </mxCell>
        <mxCell id="ZMZXslpaEfZ6qWhM_fNA-2" value="check request" style="whiteSpace=wrap;html=1;" parent="1" vertex="1">
          <mxGeometry x="130" y="280" width="120" height="60" as="geometry" />
        </mxCell>
        <mxCell id="ZMZXslpaEfZ6qWhM_fNA-5" value="make plan for&amp;nbsp;WONDER_AUTO_TEST_LAB" style="shape=note;whiteSpace=wrap;html=1;backgroundOutline=1;darkOpacity=0.05;" parent="1" vertex="1">
          <mxGeometry x="50" y="20" width="300" height="100" as="geometry" />
        </mxCell>
        <mxCell id="PuPxIZnZQiJQgbte7Vua-20" value="" style="edgeStyle=orthogonalEdgeStyle;rounded=0;orthogonalLoop=1;jettySize=auto;html=1;" parent="1" source="SdlOrnX0R3NfmZt9suOI-1" target="PuPxIZnZQiJQgbte7Vua-19" edge="1">
          <mxGeometry relative="1" as="geometry" />
        </mxCell>
        <mxCell id="PuPxIZnZQiJQgbte7Vua-32" style="edgeStyle=orthogonalEdgeStyle;rounded=0;orthogonalLoop=1;jettySize=auto;html=1;entryX=0.5;entryY=0;entryDx=0;entryDy=0;" parent="1" source="SdlOrnX0R3NfmZt9suOI-1" target="PuPxIZnZQiJQgbte7Vua-31" edge="1">
          <mxGeometry relative="1" as="geometry" />
        </mxCell>
        <mxCell id="SdlOrnX0R3NfmZt9suOI-1" value="&lt;pre style=&quot;background-color:#ffffff;color:#080808;font-family:&#39;JetBrains Mono&#39;,monospace;font-size:9.8pt;&quot;&gt;parse plan&lt;/pre&gt;" style="whiteSpace=wrap;html=1;" parent="1" vertex="1">
          <mxGeometry x="130" y="845" width="120" height="60" as="geometry" />
        </mxCell>
        <mxCell id="PuPxIZnZQiJQgbte7Vua-3" value="make plan for&amp;nbsp;APP_CENTER" style="shape=note;whiteSpace=wrap;html=1;backgroundOutline=1;darkOpacity=0.05;" parent="1" vertex="1">
          <mxGeometry x="1050" y="10" width="300" height="100" as="geometry" />
        </mxCell>
        <mxCell id="PuPxIZnZQiJQgbte7Vua-8" value="" style="edgeStyle=orthogonalEdgeStyle;rounded=0;orthogonalLoop=1;jettySize=auto;html=1;" parent="1" source="PuPxIZnZQiJQgbte7Vua-5" target="PuPxIZnZQiJQgbte7Vua-7" edge="1">
          <mxGeometry relative="1" as="geometry" />
        </mxCell>
        <mxCell id="PuPxIZnZQiJQgbte7Vua-11" value="y" style="edgeLabel;html=1;align=center;verticalAlign=middle;resizable=0;points=[];" parent="PuPxIZnZQiJQgbte7Vua-8" vertex="1" connectable="0">
          <mxGeometry x="0.2" y="1" relative="1" as="geometry">
            <mxPoint as="offset" />
          </mxGeometry>
        </mxCell>
        <mxCell id="PuPxIZnZQiJQgbte7Vua-18" style="edgeStyle=orthogonalEdgeStyle;rounded=0;orthogonalLoop=1;jettySize=auto;html=1;entryX=1;entryY=0.5;entryDx=0;entryDy=0;" parent="1" source="PuPxIZnZQiJQgbte7Vua-5" target="ZMZXslpaEfZ6qWhM_fNA-2" edge="1">
          <mxGeometry relative="1" as="geometry" />
        </mxCell>
        <mxCell id="PuPxIZnZQiJQgbte7Vua-33" style="edgeStyle=orthogonalEdgeStyle;rounded=0;orthogonalLoop=1;jettySize=auto;html=1;entryX=1;entryY=0.5;entryDx=0;entryDy=0;" parent="1" source="PuPxIZnZQiJQgbte7Vua-5" target="PuPxIZnZQiJQgbte7Vua-31" edge="1">
          <mxGeometry relative="1" as="geometry">
            <mxPoint x="690" y="1570.0000000000005" as="targetPoint" />
            <Array as="points">
              <mxPoint x="691" y="310" />
              <mxPoint x="691" y="1410" />
            </Array>
          </mxGeometry>
        </mxCell>
        <mxCell id="PuPxIZnZQiJQgbte7Vua-36" value="n" style="edgeLabel;html=1;align=center;verticalAlign=middle;resizable=0;points=[];" parent="PuPxIZnZQiJQgbte7Vua-33" vertex="1" connectable="0">
          <mxGeometry x="-0.871" y="-2" relative="1" as="geometry">
            <mxPoint as="offset" />
          </mxGeometry>
        </mxCell>
        <mxCell id="PuPxIZnZQiJQgbte7Vua-5" value="is include &lt;br&gt;upgrade test ?" style="rhombus;whiteSpace=wrap;html=1;" parent="1" vertex="1">
          <mxGeometry x="330" y="255" width="110" height="110" as="geometry" />
        </mxCell>
        <mxCell id="PuPxIZnZQiJQgbte7Vua-10" value="" style="edgeStyle=orthogonalEdgeStyle;rounded=0;orthogonalLoop=1;jettySize=auto;html=1;" parent="1" source="PuPxIZnZQiJQgbte7Vua-7" target="PuPxIZnZQiJQgbte7Vua-9" edge="1">
          <mxGeometry relative="1" as="geometry" />
        </mxCell>
        <mxCell id="PuPxIZnZQiJQgbte7Vua-14" value="y" style="edgeLabel;html=1;align=center;verticalAlign=middle;resizable=0;points=[];" parent="PuPxIZnZQiJQgbte7Vua-10" vertex="1" connectable="0">
          <mxGeometry x="0.3636" y="-2" relative="1" as="geometry">
            <mxPoint y="1" as="offset" />
          </mxGeometry>
        </mxCell>
        <mxCell id="PuPxIZnZQiJQgbte7Vua-34" style="edgeStyle=orthogonalEdgeStyle;rounded=0;orthogonalLoop=1;jettySize=auto;html=1;" parent="1" source="PuPxIZnZQiJQgbte7Vua-7" edge="1">
          <mxGeometry relative="1" as="geometry">
            <mxPoint x="690" y="450" as="targetPoint" />
          </mxGeometry>
        </mxCell>
        <mxCell id="PuPxIZnZQiJQgbte7Vua-35" value="n" style="edgeLabel;html=1;align=center;verticalAlign=middle;resizable=0;points=[];" parent="PuPxIZnZQiJQgbte7Vua-34" vertex="1" connectable="0">
          <mxGeometry x="-0.2461" y="1" relative="1" as="geometry">
            <mxPoint as="offset" />
          </mxGeometry>
        </mxCell>
        <mxCell id="PuPxIZnZQiJQgbte7Vua-7" value="Whether to choose the old version？" style="rhombus;whiteSpace=wrap;html=1;" parent="1" vertex="1">
          <mxGeometry x="330" y="395" width="110" height="110" as="geometry" />
        </mxCell>
        <mxCell id="PuPxIZnZQiJQgbte7Vua-13" value="" style="edgeStyle=orthogonalEdgeStyle;rounded=0;orthogonalLoop=1;jettySize=auto;html=1;" parent="1" source="PuPxIZnZQiJQgbte7Vua-9" target="PuPxIZnZQiJQgbte7Vua-12" edge="1">
          <mxGeometry relative="1" as="geometry" />
        </mxCell>
        <mxCell id="PuPxIZnZQiJQgbte7Vua-15" value="y" style="edgeLabel;html=1;align=center;verticalAlign=middle;resizable=0;points=[];" parent="PuPxIZnZQiJQgbte7Vua-13" vertex="1" connectable="0">
          <mxGeometry x="-0.62" y="-1" relative="1" as="geometry">
            <mxPoint as="offset" />
          </mxGeometry>
        </mxCell>
        <mxCell id="PuPxIZnZQiJQgbte7Vua-37" style="edgeStyle=orthogonalEdgeStyle;rounded=0;orthogonalLoop=1;jettySize=auto;html=1;" parent="1" source="PuPxIZnZQiJQgbte7Vua-9" edge="1">
          <mxGeometry relative="1" as="geometry">
            <mxPoint x="690" y="584.9999999999998" as="targetPoint" />
          </mxGeometry>
        </mxCell>
        <mxCell id="PuPxIZnZQiJQgbte7Vua-39" value="n" style="edgeLabel;html=1;align=center;verticalAlign=middle;resizable=0;points=[];" parent="PuPxIZnZQiJQgbte7Vua-37" vertex="1" connectable="0">
          <mxGeometry x="-0.0953" relative="1" as="geometry">
            <mxPoint as="offset" />
          </mxGeometry>
        </mxCell>
        <mxCell id="PuPxIZnZQiJQgbte7Vua-9" value="app version&amp;nbsp;&lt;br&gt;is exist?" style="rhombus;whiteSpace=wrap;html=1;" parent="1" vertex="1">
          <mxGeometry x="330" y="530" width="110" height="110" as="geometry" />
        </mxCell>
        <mxCell id="PuPxIZnZQiJQgbte7Vua-40" style="edgeStyle=orthogonalEdgeStyle;rounded=0;orthogonalLoop=1;jettySize=auto;html=1;" parent="1" source="PuPxIZnZQiJQgbte7Vua-12" edge="1">
          <mxGeometry relative="1" as="geometry">
            <mxPoint x="690" y="725.0000000000002" as="targetPoint" />
          </mxGeometry>
        </mxCell>
        <mxCell id="PuPxIZnZQiJQgbte7Vua-42" value="n" style="edgeLabel;html=1;align=center;verticalAlign=middle;resizable=0;points=[];" parent="PuPxIZnZQiJQgbte7Vua-40" vertex="1" connectable="0">
          <mxGeometry x="-0.1752" y="1" relative="1" as="geometry">
            <mxPoint as="offset" />
          </mxGeometry>
        </mxCell>
        <mxCell id="PuPxIZnZQiJQgbte7Vua-12" value="Do all old app versions exist?" style="rhombus;whiteSpace=wrap;html=1;" parent="1" vertex="1">
          <mxGeometry x="330" y="670" width="110" height="110" as="geometry" />
        </mxCell>
        <mxCell id="PuPxIZnZQiJQgbte7Vua-22" value="y" style="edgeStyle=orthogonalEdgeStyle;rounded=0;orthogonalLoop=1;jettySize=auto;html=1;" parent="1" source="PuPxIZnZQiJQgbte7Vua-19" edge="1">
          <mxGeometry relative="1" as="geometry">
            <mxPoint x="403.70000000000005" y="1000" as="targetPoint" />
          </mxGeometry>
        </mxCell>
        <mxCell id="PuPxIZnZQiJQgbte7Vua-43" style="edgeStyle=orthogonalEdgeStyle;rounded=0;orthogonalLoop=1;jettySize=auto;html=1;" parent="1" source="PuPxIZnZQiJQgbte7Vua-19" edge="1">
          <mxGeometry relative="1" as="geometry">
            <mxPoint x="690" y="875.0000000000002" as="targetPoint" />
          </mxGeometry>
        </mxCell>
        <mxCell id="PuPxIZnZQiJQgbte7Vua-45" value="n" style="edgeLabel;html=1;align=center;verticalAlign=middle;resizable=0;points=[];" parent="PuPxIZnZQiJQgbte7Vua-43" vertex="1" connectable="0">
          <mxGeometry x="-0.063" y="1" relative="1" as="geometry">
            <mxPoint as="offset" />
          </mxGeometry>
        </mxCell>
        <mxCell id="PuPxIZnZQiJQgbte7Vua-19" value="check &lt;br&gt;executor branch&lt;br&gt;&amp;nbsp;is exist?" style="rhombus;whiteSpace=wrap;html=1;" parent="1" vertex="1">
          <mxGeometry x="340" y="810" width="130" height="130" as="geometry" />
        </mxCell>
        <mxCell id="PuPxIZnZQiJQgbte7Vua-24" value="" style="edgeStyle=orthogonalEdgeStyle;rounded=0;orthogonalLoop=1;jettySize=auto;html=1;" parent="1" target="PuPxIZnZQiJQgbte7Vua-23" edge="1">
          <mxGeometry relative="1" as="geometry">
            <mxPoint x="403.70000000000005" y="1050" as="sourcePoint" />
          </mxGeometry>
        </mxCell>
        <mxCell id="PuPxIZnZQiJQgbte7Vua-27" value="" style="edgeStyle=orthogonalEdgeStyle;rounded=0;orthogonalLoop=1;jettySize=auto;html=1;" parent="1" source="PuPxIZnZQiJQgbte7Vua-23" target="PuPxIZnZQiJQgbte7Vua-26" edge="1">
          <mxGeometry relative="1" as="geometry" />
        </mxCell>
        <mxCell id="PuPxIZnZQiJQgbte7Vua-23" value="init case_test_results to pending" style="whiteSpace=wrap;html=1;" parent="1" vertex="1">
          <mxGeometry x="307.39" y="1080" width="192.5" height="50" as="geometry" />
        </mxCell>
        <mxCell id="PuPxIZnZQiJQgbte7Vua-29" value="" style="edgeStyle=orthogonalEdgeStyle;rounded=0;orthogonalLoop=1;jettySize=auto;html=1;" parent="1" source="PuPxIZnZQiJQgbte7Vua-26" target="PuPxIZnZQiJQgbte7Vua-28" edge="1">
          <mxGeometry relative="1" as="geometry" />
        </mxCell>
        <mxCell id="PuPxIZnZQiJQgbte7Vua-26" value="init executor cases to pending" style="whiteSpace=wrap;html=1;fillColor=#f8cecc;strokeColor=#b85450;" parent="1" vertex="1">
          <mxGeometry x="307.39" y="1169" width="192.5" height="50" as="geometry" />
        </mxCell>
        <mxCell id="PuPxIZnZQiJQgbte7Vua-46" style="edgeStyle=orthogonalEdgeStyle;rounded=0;orthogonalLoop=1;jettySize=auto;html=1;" parent="1" source="PuPxIZnZQiJQgbte7Vua-28" edge="1">
          <mxGeometry relative="1" as="geometry">
            <mxPoint x="190" y="1285" as="targetPoint" />
          </mxGeometry>
        </mxCell>
        <mxCell id="PuPxIZnZQiJQgbte7Vua-28" value="init plan to pending" style="whiteSpace=wrap;html=1;" parent="1" vertex="1">
          <mxGeometry x="307.39" y="1260" width="192.5" height="50" as="geometry" />
        </mxCell>
        <mxCell id="PuPxIZnZQiJQgbte7Vua-30" value="init device_tasks to pending" style="whiteSpace=wrap;html=1;" parent="1" vertex="1">
          <mxGeometry x="307.39" y="1000" width="192.5" height="50" as="geometry" />
        </mxCell>
        <mxCell id="PuPxIZnZQiJQgbte7Vua-31" value="end" style="ellipse;whiteSpace=wrap;html=1;" parent="1" vertex="1">
          <mxGeometry x="130" y="1370" width="120" height="80" as="geometry" />
        </mxCell>
        <mxCell id="PuPxIZnZQiJQgbte7Vua-49" value="" style="edgeStyle=orthogonalEdgeStyle;rounded=0;orthogonalLoop=1;jettySize=auto;html=1;" parent="1" source="PuPxIZnZQiJQgbte7Vua-47" target="PuPxIZnZQiJQgbte7Vua-48" edge="1">
          <mxGeometry relative="1" as="geometry" />
        </mxCell>
        <mxCell id="PuPxIZnZQiJQgbte7Vua-47" value="start" style="ellipse;whiteSpace=wrap;html=1;" parent="1" vertex="1">
          <mxGeometry x="950" y="130" width="120" height="80" as="geometry" />
        </mxCell>
        <mxCell id="PuPxIZnZQiJQgbte7Vua-56" style="edgeStyle=orthogonalEdgeStyle;rounded=0;orthogonalLoop=1;jettySize=auto;html=1;" parent="1" source="PuPxIZnZQiJQgbte7Vua-48" target="PuPxIZnZQiJQgbte7Vua-50" edge="1">
          <mxGeometry relative="1" as="geometry" />
        </mxCell>
        <mxCell id="PuPxIZnZQiJQgbte7Vua-58" style="edgeStyle=orthogonalEdgeStyle;rounded=0;orthogonalLoop=1;jettySize=auto;html=1;entryX=0.5;entryY=0;entryDx=0;entryDy=0;" parent="1" source="PuPxIZnZQiJQgbte7Vua-48" target="PuPxIZnZQiJQgbte7Vua-60" edge="1">
          <mxGeometry relative="1" as="geometry">
            <mxPoint x="1010" y="800" as="targetPoint" />
          </mxGeometry>
        </mxCell>
        <mxCell id="PuPxIZnZQiJQgbte7Vua-48" value="check request" style="whiteSpace=wrap;html=1;" parent="1" vertex="1">
          <mxGeometry x="950" y="270" width="120" height="60" as="geometry" />
        </mxCell>
        <mxCell id="PuPxIZnZQiJQgbte7Vua-52" value="" style="edgeStyle=orthogonalEdgeStyle;rounded=0;orthogonalLoop=1;jettySize=auto;html=1;" parent="1" source="PuPxIZnZQiJQgbte7Vua-50" target="PuPxIZnZQiJQgbte7Vua-51" edge="1">
          <mxGeometry relative="1" as="geometry" />
        </mxCell>
        <mxCell id="PuPxIZnZQiJQgbte7Vua-53" value="y" style="edgeLabel;html=1;align=center;verticalAlign=middle;resizable=0;points=[];" parent="PuPxIZnZQiJQgbte7Vua-52" vertex="1" connectable="0">
          <mxGeometry x="-0.5207" y="-1" relative="1" as="geometry">
            <mxPoint as="offset" />
          </mxGeometry>
        </mxCell>
        <mxCell id="PuPxIZnZQiJQgbte7Vua-50" value="is uat&amp;nbsp;environment?" style="rhombus;whiteSpace=wrap;html=1;fillColor=#ffe6cc;strokeColor=#d79b00;" parent="1" vertex="1">
          <mxGeometry x="1210" y="235" width="130" height="130" as="geometry" />
        </mxCell>
        <mxCell id="PuPxIZnZQiJQgbte7Vua-55" value="y" style="edgeStyle=orthogonalEdgeStyle;rounded=0;orthogonalLoop=1;jettySize=auto;html=1;" parent="1" source="PuPxIZnZQiJQgbte7Vua-51" target="PuPxIZnZQiJQgbte7Vua-54" edge="1">
          <mxGeometry relative="1" as="geometry" />
        </mxCell>
        <mxCell id="PuPxIZnZQiJQgbte7Vua-51" value="is upgrade test?" style="rhombus;whiteSpace=wrap;html=1;fillColor=#ffe6cc;strokeColor=#d79b00;" parent="1" vertex="1">
          <mxGeometry x="1430" y="240" width="130" height="130" as="geometry" />
        </mxCell>
        <mxCell id="PuPxIZnZQiJQgbte7Vua-57" style="edgeStyle=orthogonalEdgeStyle;rounded=0;orthogonalLoop=1;jettySize=auto;html=1;entryX=1;entryY=1;entryDx=0;entryDy=0;" parent="1" source="PuPxIZnZQiJQgbte7Vua-54" target="PuPxIZnZQiJQgbte7Vua-48" edge="1">
          <mxGeometry relative="1" as="geometry" />
        </mxCell>
        <mxCell id="PuPxIZnZQiJQgbte7Vua-54" value="Only upgrade an older version？" style="rhombus;whiteSpace=wrap;html=1;fillColor=#ffe6cc;strokeColor=#d79b00;" parent="1" vertex="1">
          <mxGeometry x="1430" y="420" width="130" height="130" as="geometry" />
        </mxCell>
        <mxCell id="PuPxIZnZQiJQgbte7Vua-62" value="" style="edgeStyle=orthogonalEdgeStyle;rounded=0;orthogonalLoop=1;jettySize=auto;html=1;" parent="1" source="PuPxIZnZQiJQgbte7Vua-60" target="PuPxIZnZQiJQgbte7Vua-61" edge="1">
          <mxGeometry relative="1" as="geometry" />
        </mxCell>
        <mxCell id="PuPxIZnZQiJQgbte7Vua-69" value="" style="edgeStyle=orthogonalEdgeStyle;rounded=0;orthogonalLoop=1;jettySize=auto;html=1;" parent="1" source="PuPxIZnZQiJQgbte7Vua-60" target="PuPxIZnZQiJQgbte7Vua-68" edge="1">
          <mxGeometry relative="1" as="geometry" />
        </mxCell>
        <mxCell id="PuPxIZnZQiJQgbte7Vua-60" value="parse plan" style="rounded=0;whiteSpace=wrap;html=1;" parent="1" vertex="1">
          <mxGeometry x="950" y="570" width="120" height="60" as="geometry" />
        </mxCell>
        <mxCell id="PuPxIZnZQiJQgbte7Vua-61" value="init plan to pending" style="rounded=0;whiteSpace=wrap;html=1;fillColor=#ffe6cc;strokeColor=#d79b00;" parent="1" vertex="1">
          <mxGeometry x="1150" y="570" width="120" height="60" as="geometry" />
        </mxCell>
        <mxCell id="PuPxIZnZQiJQgbte7Vua-66" style="edgeStyle=orthogonalEdgeStyle;rounded=0;orthogonalLoop=1;jettySize=auto;html=1;entryX=1;entryY=0.5;entryDx=0;entryDy=0;" parent="1" source="PuPxIZnZQiJQgbte7Vua-63" target="PuPxIZnZQiJQgbte7Vua-61" edge="1">
          <mxGeometry relative="1" as="geometry" />
        </mxCell>
        <mxCell id="PuPxIZnZQiJQgbte7Vua-63" value="init test tuns&lt;br&gt;(ios:android=1:1)" style="rounded=0;whiteSpace=wrap;html=1;fillColor=#ffe6cc;strokeColor=#d79b00;" parent="1" vertex="1">
          <mxGeometry x="1350" y="570" width="120" height="60" as="geometry" />
        </mxCell>
        <mxCell id="PuPxIZnZQiJQgbte7Vua-73" style="edgeStyle=orthogonalEdgeStyle;rounded=0;orthogonalLoop=1;jettySize=auto;html=1;entryX=0.5;entryY=0;entryDx=0;entryDy=0;" parent="1" source="PuPxIZnZQiJQgbte7Vua-68" target="PuPxIZnZQiJQgbte7Vua-72" edge="1">
          <mxGeometry relative="1" as="geometry" />
        </mxCell>
        <mxCell id="PuPxIZnZQiJQgbte7Vua-95" style="edgeStyle=orthogonalEdgeStyle;rounded=0;orthogonalLoop=1;jettySize=auto;html=1;entryX=0;entryY=0.5;entryDx=0;entryDy=0;" parent="1" source="PuPxIZnZQiJQgbte7Vua-68" target="PuPxIZnZQiJQgbte7Vua-74" edge="1">
          <mxGeometry relative="1" as="geometry" />
        </mxCell>
        <mxCell id="PuPxIZnZQiJQgbte7Vua-68" value="async to build &lt;br&gt;test runs" style="rounded=0;whiteSpace=wrap;html=1;fillColor=#ffe6cc;strokeColor=#d79b00;" parent="1" vertex="1">
          <mxGeometry x="950" y="710" width="120" height="60" as="geometry" />
        </mxCell>
        <mxCell id="PuPxIZnZQiJQgbte7Vua-72" value="done" style="ellipse;whiteSpace=wrap;html=1;" parent="1" vertex="1">
          <mxGeometry x="950" y="825" width="120" height="80" as="geometry" />
        </mxCell>
        <mxCell id="PuPxIZnZQiJQgbte7Vua-76" value="" style="edgeStyle=orthogonalEdgeStyle;rounded=0;orthogonalLoop=1;jettySize=auto;html=1;" parent="1" source="PuPxIZnZQiJQgbte7Vua-74" target="PuPxIZnZQiJQgbte7Vua-75" edge="1">
          <mxGeometry relative="1" as="geometry" />
        </mxCell>
        <mxCell id="PuPxIZnZQiJQgbte7Vua-74" value="&lt;pre style=&quot;background-color:#ffffff;color:#080808;font-family:&#39;JetBrains Mono&#39;,monospace;font-size:9.8pt;&quot;&gt;download executor source code from GitHub&lt;/pre&gt;" style="rounded=0;whiteSpace=wrap;html=1;" parent="1" vertex="1">
          <mxGeometry x="1150" y="710" width="380" height="60" as="geometry" />
        </mxCell>
        <mxCell id="PuPxIZnZQiJQgbte7Vua-78" value="" style="edgeStyle=orthogonalEdgeStyle;rounded=0;orthogonalLoop=1;jettySize=auto;html=1;" parent="1" source="PuPxIZnZQiJQgbte7Vua-75" target="PuPxIZnZQiJQgbte7Vua-77" edge="1">
          <mxGeometry relative="1" as="geometry" />
        </mxCell>
        <mxCell id="PuPxIZnZQiJQgbte7Vua-75" value="&lt;pre style=&quot;background-color:#ffffff;color:#080808;font-family:&#39;JetBrains Mono&#39;,monospace;font-size:9.8pt;&quot;&gt;&lt;pre style=&quot;font-family: &amp;quot;JetBrains Mono&amp;quot;, monospace; font-size: 9.8pt;&quot;&gt;package executor to JAR file by maven&lt;/pre&gt;&lt;/pre&gt;" style="rounded=0;whiteSpace=wrap;html=1;" parent="1" vertex="1">
          <mxGeometry x="1150" y="850" width="380" height="60" as="geometry" />
        </mxCell>
        <mxCell id="PuPxIZnZQiJQgbte7Vua-82" value="" style="edgeStyle=orthogonalEdgeStyle;rounded=0;orthogonalLoop=1;jettySize=auto;html=1;" parent="1" source="PuPxIZnZQiJQgbte7Vua-77" target="PuPxIZnZQiJQgbte7Vua-81" edge="1">
          <mxGeometry relative="1" as="geometry" />
        </mxCell>
        <mxCell id="PuPxIZnZQiJQgbte7Vua-77" value="&lt;pre style=&quot;background-color:#ffffff;color:#080808;font-family:&#39;JetBrains Mono&#39;,monospace;font-size:9.8pt;&quot;&gt;&lt;pre style=&quot;font-family: &amp;quot;JetBrains Mono&amp;quot;, monospace; font-size: 9.8pt;&quot;&gt;create device set&lt;/pre&gt;&lt;/pre&gt;" style="rounded=0;whiteSpace=wrap;html=1;" parent="1" vertex="1">
          <mxGeometry x="1150" y="990" width="380" height="60" as="geometry" />
        </mxCell>
        <mxCell id="PuPxIZnZQiJQgbte7Vua-84" value="" style="edgeStyle=orthogonalEdgeStyle;rounded=0;orthogonalLoop=1;jettySize=auto;html=1;" parent="1" source="PuPxIZnZQiJQgbte7Vua-81" target="PuPxIZnZQiJQgbte7Vua-83" edge="1">
          <mxGeometry relative="1" as="geometry" />
        </mxCell>
        <mxCell id="PuPxIZnZQiJQgbte7Vua-81" value="&lt;pre style=&quot;background-color:#ffffff;color:#080808;font-family:&#39;JetBrains Mono&#39;,monospace;font-size:9.8pt;&quot;&gt;&lt;pre style=&quot;font-family: &amp;quot;JetBrains Mono&amp;quot;, monospace; font-size: 9.8pt;&quot;&gt; download the latest app from app center&lt;/pre&gt;&lt;/pre&gt;" style="rounded=0;whiteSpace=wrap;html=1;" parent="1" vertex="1">
          <mxGeometry x="1150" y="1130" width="380" height="60" as="geometry" />
        </mxCell>
        <mxCell id="PuPxIZnZQiJQgbte7Vua-86" value="" style="edgeStyle=orthogonalEdgeStyle;rounded=0;orthogonalLoop=1;jettySize=auto;html=1;" parent="1" source="PuPxIZnZQiJQgbte7Vua-83" target="PuPxIZnZQiJQgbte7Vua-85" edge="1">
          <mxGeometry relative="1" as="geometry" />
        </mxCell>
        <mxCell id="PuPxIZnZQiJQgbte7Vua-83" value="&lt;pre style=&quot;background-color:#ffffff;color:#080808;font-family:&#39;JetBrains Mono&#39;,monospace;font-size:9.8pt;&quot;&gt;&lt;pre style=&quot;font-family: &amp;quot;JetBrains Mono&amp;quot;, monospace; font-size: 9.8pt;&quot;&gt;create test run on app center&lt;/pre&gt;&lt;/pre&gt;" style="rounded=0;whiteSpace=wrap;html=1;" parent="1" vertex="1">
          <mxGeometry x="1150" y="1270" width="380" height="60" as="geometry" />
        </mxCell>
        <mxCell id="PuPxIZnZQiJQgbte7Vua-88" value="" style="edgeStyle=orthogonalEdgeStyle;rounded=0;orthogonalLoop=1;jettySize=auto;html=1;" parent="1" source="PuPxIZnZQiJQgbte7Vua-85" target="PuPxIZnZQiJQgbte7Vua-87" edge="1">
          <mxGeometry relative="1" as="geometry" />
        </mxCell>
        <mxCell id="PuPxIZnZQiJQgbte7Vua-85" value="&lt;pre style=&quot;background-color:#ffffff;color:#080808;font-family:&#39;JetBrains Mono&#39;,monospace;font-size:9.8pt;&quot;&gt;&lt;pre style=&quot;font-family: &amp;quot;JetBrains Mono&amp;quot;, monospace; font-size: 9.8pt;&quot;&gt;init hash file list on app center&lt;/pre&gt;&lt;/pre&gt;" style="rounded=0;whiteSpace=wrap;html=1;" parent="1" vertex="1">
          <mxGeometry x="1150" y="1410" width="380" height="60" as="geometry" />
        </mxCell>
        <mxCell id="PuPxIZnZQiJQgbte7Vua-90" value="" style="edgeStyle=orthogonalEdgeStyle;rounded=0;orthogonalLoop=1;jettySize=auto;html=1;" parent="1" source="PuPxIZnZQiJQgbte7Vua-87" target="PuPxIZnZQiJQgbte7Vua-89" edge="1">
          <mxGeometry relative="1" as="geometry" />
        </mxCell>
        <mxCell id="PuPxIZnZQiJQgbte7Vua-87" value="&lt;pre style=&quot;background-color:#ffffff;color:#080808;font-family:&#39;JetBrains Mono&#39;,monospace;font-size:9.8pt;&quot;&gt;&lt;pre style=&quot;font-family: &amp;quot;JetBrains Mono&amp;quot;, monospace; font-size: 9.8pt;&quot;&gt;init hash file on app center&lt;/pre&gt;&lt;/pre&gt;" style="rounded=0;whiteSpace=wrap;html=1;" parent="1" vertex="1">
          <mxGeometry x="1150" y="1550" width="380" height="60" as="geometry" />
        </mxCell>
        <mxCell id="PuPxIZnZQiJQgbte7Vua-92" value="" style="edgeStyle=orthogonalEdgeStyle;rounded=0;orthogonalLoop=1;jettySize=auto;html=1;" parent="1" source="PuPxIZnZQiJQgbte7Vua-89" target="PuPxIZnZQiJQgbte7Vua-91" edge="1">
          <mxGeometry relative="1" as="geometry" />
        </mxCell>
        <mxCell id="PuPxIZnZQiJQgbte7Vua-89" value="&lt;pre style=&quot;background-color:#ffffff;color:#080808;font-family:&#39;JetBrains Mono&#39;,monospace;font-size:9.8pt;&quot;&gt;&lt;pre style=&quot;font-family: &amp;quot;JetBrains Mono&amp;quot;, monospace; font-size: 9.8pt;&quot;&gt;upload app-file &amp;amp; test-file to app center&lt;/pre&gt;&lt;/pre&gt;" style="rounded=0;whiteSpace=wrap;html=1;" parent="1" vertex="1">
          <mxGeometry x="1150" y="1690" width="380" height="60" as="geometry" />
        </mxCell>
        <mxCell id="PuPxIZnZQiJQgbte7Vua-94" value="" style="edgeStyle=orthogonalEdgeStyle;rounded=0;orthogonalLoop=1;jettySize=auto;html=1;" parent="1" source="PuPxIZnZQiJQgbte7Vua-91" target="PuPxIZnZQiJQgbte7Vua-93" edge="1">
          <mxGeometry relative="1" as="geometry" />
        </mxCell>
        <mxCell id="PuPxIZnZQiJQgbte7Vua-91" value="&lt;pre style=&quot;background-color:#ffffff;color:#080808;font-family:&#39;JetBrains Mono&#39;,monospace;font-size:9.8pt;&quot;&gt;&lt;pre style=&quot;font-family: &amp;quot;JetBrains Mono&amp;quot;, monospace; font-size: 9.8pt;&quot;&gt;trigger test on app center&lt;/pre&gt;&lt;/pre&gt;" style="rounded=0;whiteSpace=wrap;html=1;" parent="1" vertex="1">
          <mxGeometry x="1150" y="1830" width="380" height="60" as="geometry" />
        </mxCell>
        <mxCell id="PuPxIZnZQiJQgbte7Vua-97" value="" style="edgeStyle=orthogonalEdgeStyle;rounded=0;orthogonalLoop=1;jettySize=auto;html=1;" parent="1" source="PuPxIZnZQiJQgbte7Vua-93" target="PuPxIZnZQiJQgbte7Vua-96" edge="1">
          <mxGeometry relative="1" as="geometry" />
        </mxCell>
        <mxCell id="PuPxIZnZQiJQgbte7Vua-93" value="&lt;pre style=&quot;background-color:#ffffff;color:#080808;font-family:&#39;JetBrains Mono&#39;,monospace;font-size:9.8pt;&quot;&gt;&lt;pre style=&quot;font-family: &amp;quot;JetBrains Mono&amp;quot;, monospace; font-size: 9.8pt;&quot;&gt;validate test state on app center&lt;/pre&gt;&lt;/pre&gt;" style="rounded=0;whiteSpace=wrap;html=1;" parent="1" vertex="1">
          <mxGeometry x="1150" y="1970" width="380" height="60" as="geometry" />
        </mxCell>
        <mxCell id="PuPxIZnZQiJQgbte7Vua-99" style="edgeStyle=orthogonalEdgeStyle;rounded=0;orthogonalLoop=1;jettySize=auto;html=1;entryX=0.5;entryY=0;entryDx=0;entryDy=0;" parent="1" source="PuPxIZnZQiJQgbte7Vua-96" target="PuPxIZnZQiJQgbte7Vua-98" edge="1">
          <mxGeometry relative="1" as="geometry" />
        </mxCell>
        <mxCell id="PuPxIZnZQiJQgbte7Vua-96" value="&lt;pre style=&quot;background-color:#ffffff;color:#080808;font-family:&#39;JetBrains Mono&#39;,monospace;font-size:9.8pt;&quot;&gt;&lt;pre style=&quot;font-family: &amp;quot;JetBrains Mono&amp;quot;, monospace; font-size: 9.8pt;&quot;&gt;modify plan: test_runs &amp;amp; status = ON_APP_CENTER&lt;/pre&gt;&lt;/pre&gt;" style="rounded=0;whiteSpace=wrap;html=1;" parent="1" vertex="1">
          <mxGeometry x="1150" y="2110" width="380" height="60" as="geometry" />
        </mxCell>
        <mxCell id="PuPxIZnZQiJQgbte7Vua-98" value="end" style="ellipse;whiteSpace=wrap;html=1;" parent="1" vertex="1">
          <mxGeometry x="1280" y="2240" width="120" height="80" as="geometry" />
        </mxCell>
      </root>
    </mxGraphModel>
  </diagram>
  <diagram id="Dv_8CDu9SGc0HBZLSSUy" name="total">
    <mxGraphModel dx="954" dy="507" grid="1" gridSize="10" guides="1" tooltips="1" connect="1" arrows="1" fold="1" page="1" pageScale="1" pageWidth="827" pageHeight="1169" math="0" shadow="0">
      <root>
        <mxCell id="0" />
        <mxCell id="1" parent="0" />
        <mxCell id="gqaO5ImZmmwmpDUGadmo-7" style="edgeStyle=orthogonalEdgeStyle;rounded=0;orthogonalLoop=1;jettySize=auto;html=1;" parent="1" source="gqaO5ImZmmwmpDUGadmo-1" edge="1">
          <mxGeometry relative="1" as="geometry">
            <mxPoint x="415" y="340" as="targetPoint" />
          </mxGeometry>
        </mxCell>
        <mxCell id="gqaO5ImZmmwmpDUGadmo-1" value="test-api" style="html=1;whiteSpace=wrap;" parent="1" vertex="1">
          <mxGeometry x="360" y="80" width="110" height="50" as="geometry" />
        </mxCell>
        <mxCell id="gqaO5ImZmmwmpDUGadmo-8" style="edgeStyle=orthogonalEdgeStyle;rounded=0;orthogonalLoop=1;jettySize=auto;html=1;" parent="1" source="gqaO5ImZmmwmpDUGadmo-2" edge="1">
          <mxGeometry relative="1" as="geometry">
            <mxPoint x="695" y="360" as="targetPoint" />
          </mxGeometry>
        </mxCell>
        <mxCell id="gqaO5ImZmmwmpDUGadmo-2" value="test-case-service" style="html=1;whiteSpace=wrap;" parent="1" vertex="1">
          <mxGeometry x="640" y="80" width="110" height="50" as="geometry" />
        </mxCell>
        <mxCell id="gqaO5ImZmmwmpDUGadmo-6" style="edgeStyle=orthogonalEdgeStyle;rounded=0;orthogonalLoop=1;jettySize=auto;html=1;exitX=0.5;exitY=1;exitDx=0;exitDy=0;" parent="1" source="gqaO5ImZmmwmpDUGadmo-4" edge="1">
          <mxGeometry relative="1" as="geometry">
            <mxPoint x="135" y="340" as="targetPoint" />
          </mxGeometry>
        </mxCell>
        <mxCell id="gqaO5ImZmmwmpDUGadmo-4" value="test-executor" style="html=1;whiteSpace=wrap;" parent="1" vertex="1">
          <mxGeometry x="80" y="80" width="110" height="50" as="geometry" />
        </mxCell>
        <mxCell id="gqaO5ImZmmwmpDUGadmo-9" value="" style="html=1;points=[];perimeter=orthogonalPerimeter;outlineConnect=0;targetShapes=umlLifeline;portConstraint=eastwest;newEdgeStyle={&quot;edgeStyle&quot;:&quot;elbowEdgeStyle&quot;,&quot;elbow&quot;:&quot;vertical&quot;,&quot;curved&quot;:0,&quot;rounded&quot;:0};" parent="1" vertex="1">
          <mxGeometry x="410" y="170" width="10" height="80" as="geometry" />
        </mxCell>
        <mxCell id="gqaO5ImZmmwmpDUGadmo-10" value="DeviceTaskAJAXWebService.nextForTest()" style="html=1;verticalAlign=bottom;endArrow=block;edgeStyle=elbowEdgeStyle;elbow=vertical;curved=0;rounded=0;" parent="1" target="gqaO5ImZmmwmpDUGadmo-9" edge="1">
          <mxGeometry relative="1" as="geometry">
            <mxPoint x="140" y="170" as="sourcePoint" />
          </mxGeometry>
        </mxCell>
        <mxCell id="gqaO5ImZmmwmpDUGadmo-11" value="return device_task" style="html=1;verticalAlign=bottom;endArrow=open;dashed=1;endSize=8;edgeStyle=elbowEdgeStyle;elbow=vertical;curved=0;rounded=0;" parent="1" source="gqaO5ImZmmwmpDUGadmo-9" edge="1">
          <mxGeometry relative="1" as="geometry">
            <mxPoint x="140" y="250" as="targetPoint" />
          </mxGeometry>
        </mxCell>
        <mxCell id="gqaO5ImZmmwmpDUGadmo-12" value="" style="html=1;points=[];perimeter=orthogonalPerimeter;outlineConnect=0;targetShapes=umlLifeline;portConstraint=eastwest;newEdgeStyle={&quot;edgeStyle&quot;:&quot;elbowEdgeStyle&quot;,&quot;elbow&quot;:&quot;vertical&quot;,&quot;curved&quot;:0,&quot;rounded&quot;:0};" parent="1" vertex="1">
          <mxGeometry x="690" y="170" width="10" height="80" as="geometry" />
        </mxCell>
        <mxCell id="gqaO5ImZmmwmpDUGadmo-13" value="DeviceTaskWebService.nextForTest()" style="html=1;verticalAlign=bottom;endArrow=block;edgeStyle=elbowEdgeStyle;elbow=vertical;curved=0;rounded=0;exitX=1;exitY=0;exitDx=0;exitDy=0;exitPerimeter=0;" parent="1" source="gqaO5ImZmmwmpDUGadmo-9" target="gqaO5ImZmmwmpDUGadmo-12" edge="1">
          <mxGeometry relative="1" as="geometry">
            <mxPoint x="430" y="170" as="sourcePoint" />
          </mxGeometry>
        </mxCell>
        <mxCell id="gqaO5ImZmmwmpDUGadmo-14" value="return device_task" style="html=1;verticalAlign=bottom;endArrow=open;dashed=1;endSize=8;edgeStyle=elbowEdgeStyle;elbow=vertical;curved=0;rounded=0;" parent="1" edge="1">
          <mxGeometry relative="1" as="geometry">
            <mxPoint x="420" y="249" as="targetPoint" />
            <mxPoint x="690" y="249" as="sourcePoint" />
          </mxGeometry>
        </mxCell>
      </root>
    </mxGraphModel>
  </diagram>
  <diagram id="wgkOVUz9yFeZxGJuNHK3" name="list device">
    <mxGraphModel dx="954" dy="519" grid="1" gridSize="10" guides="1" tooltips="1" connect="1" arrows="1" fold="1" page="1" pageScale="1" pageWidth="827" pageHeight="1169" math="0" shadow="0">
      <root>
        <mxCell id="0" />
        <mxCell id="1" parent="0" />
        <mxCell id="r3Fg9tRAH2swqNWT7yLl-5" style="edgeStyle=orthogonalEdgeStyle;rounded=0;orthogonalLoop=1;jettySize=auto;html=1;entryX=0.5;entryY=0;entryDx=0;entryDy=0;" parent="1" source="r3Fg9tRAH2swqNWT7yLl-1" target="r3Fg9tRAH2swqNWT7yLl-2" edge="1">
          <mxGeometry relative="1" as="geometry" />
        </mxCell>
        <mxCell id="r3Fg9tRAH2swqNWT7yLl-1" value="start" style="ellipse;whiteSpace=wrap;html=1;" parent="1" vertex="1">
          <mxGeometry x="217.5" y="150" width="120" height="80" as="geometry" />
        </mxCell>
        <mxCell id="nIQENBOH0POeJipGUg7n-6" style="edgeStyle=orthogonalEdgeStyle;rounded=0;orthogonalLoop=1;jettySize=auto;html=1;exitX=0.5;exitY=1;exitDx=0;exitDy=0;entryX=0.5;entryY=0;entryDx=0;entryDy=0;" parent="1" source="r3Fg9tRAH2swqNWT7yLl-2" target="nIQENBOH0POeJipGUg7n-5" edge="1">
          <mxGeometry relative="1" as="geometry" />
        </mxCell>
        <mxCell id="r3Fg9tRAH2swqNWT7yLl-2" value="list device&amp;nbsp; by&amp;nbsp;aggregate table fields&amp;nbsp;&lt;br&gt;&lt;font color=&quot;#ff6666&quot;&gt;(fields:manufacturer &amp;amp; device_model &amp;amp; os &amp;amp; os_version &amp;amp; height &amp;amp; width &amp;amp; device_type&lt;span style=&quot;background-color: initial;&quot;&gt;)&amp;nbsp;&lt;/span&gt;&lt;/font&gt;" style="rounded=0;whiteSpace=wrap;html=1;" parent="1" vertex="1">
          <mxGeometry x="30" y="300" width="495" height="50" as="geometry" />
        </mxCell>
        <mxCell id="nIQENBOH0POeJipGUg7n-3" value="list device for&amp;nbsp;WONDER_AUTO_TEST_LAB" style="rounded=0;whiteSpace=wrap;html=1;" parent="1" vertex="1">
          <mxGeometry x="40" y="40" width="250" height="60" as="geometry" />
        </mxCell>
        <mxCell id="nIQENBOH0POeJipGUg7n-4" value="list device for&amp;nbsp;APP_CENTER" style="rounded=0;whiteSpace=wrap;html=1;" parent="1" vertex="1">
          <mxGeometry x="880" y="40" width="250" height="60" as="geometry" />
        </mxCell>
        <mxCell id="nIQENBOH0POeJipGUg7n-5" value="end" style="ellipse;whiteSpace=wrap;html=1;" parent="1" vertex="1">
          <mxGeometry x="217.5" y="390" width="120" height="80" as="geometry" />
        </mxCell>
        <mxCell id="nIQENBOH0POeJipGUg7n-25" style="edgeStyle=orthogonalEdgeStyle;rounded=0;orthogonalLoop=1;jettySize=auto;html=1;entryX=0.5;entryY=0;entryDx=0;entryDy=0;" parent="1" source="nIQENBOH0POeJipGUg7n-7" target="nIQENBOH0POeJipGUg7n-10" edge="1">
          <mxGeometry relative="1" as="geometry">
            <Array as="points">
              <mxPoint x="1220" y="280" />
              <mxPoint x="1005" y="280" />
            </Array>
          </mxGeometry>
        </mxCell>
        <mxCell id="nIQENBOH0POeJipGUg7n-35" style="edgeStyle=orthogonalEdgeStyle;rounded=0;orthogonalLoop=1;jettySize=auto;html=1;entryX=0.5;entryY=0;entryDx=0;entryDy=0;" parent="1" source="nIQENBOH0POeJipGUg7n-7" target="nIQENBOH0POeJipGUg7n-27" edge="1">
          <mxGeometry relative="1" as="geometry">
            <Array as="points">
              <mxPoint x="1220" y="280" />
              <mxPoint x="1395" y="280" />
            </Array>
          </mxGeometry>
        </mxCell>
        <mxCell id="nIQENBOH0POeJipGUg7n-7" value="start" style="ellipse;whiteSpace=wrap;html=1;" parent="1" vertex="1">
          <mxGeometry x="1160" y="160" width="120" height="80" as="geometry" />
        </mxCell>
        <mxCell id="nIQENBOH0POeJipGUg7n-13" value="" style="edgeStyle=orthogonalEdgeStyle;rounded=0;orthogonalLoop=1;jettySize=auto;html=1;" parent="1" source="nIQENBOH0POeJipGUg7n-10" target="nIQENBOH0POeJipGUg7n-12" edge="1">
          <mxGeometry relative="1" as="geometry" />
        </mxCell>
        <mxCell id="nIQENBOH0POeJipGUg7n-10" value="list ios device set from app center" style="whiteSpace=wrap;html=1;" parent="1" vertex="1">
          <mxGeometry x="902.5" y="320" width="205" height="50" as="geometry" />
        </mxCell>
        <mxCell id="nIQENBOH0POeJipGUg7n-21" value="" style="edgeStyle=orthogonalEdgeStyle;rounded=0;orthogonalLoop=1;jettySize=auto;html=1;" parent="1" source="nIQENBOH0POeJipGUg7n-12" target="nIQENBOH0POeJipGUg7n-20" edge="1">
          <mxGeometry relative="1" as="geometry" />
        </mxCell>
        <mxCell id="nIQENBOH0POeJipGUg7n-12" value="exclude device set, naming:&amp;nbsp; temp_ios_xxx" style="whiteSpace=wrap;html=1;" parent="1" vertex="1">
          <mxGeometry x="890" y="450" width="230" height="50" as="geometry" />
        </mxCell>
        <mxCell id="nIQENBOH0POeJipGUg7n-17" value="" style="edgeStyle=orthogonalEdgeStyle;rounded=0;orthogonalLoop=1;jettySize=auto;html=1;" parent="1" target="nIQENBOH0POeJipGUg7n-16" edge="1">
          <mxGeometry relative="1" as="geometry">
            <mxPoint x="1005" y="630" as="sourcePoint" />
          </mxGeometry>
        </mxCell>
        <mxCell id="nIQENBOH0POeJipGUg7n-23" value="" style="edgeStyle=orthogonalEdgeStyle;rounded=0;orthogonalLoop=1;jettySize=auto;html=1;" parent="1" source="nIQENBOH0POeJipGUg7n-16" target="nIQENBOH0POeJipGUg7n-22" edge="1">
          <mxGeometry relative="1" as="geometry" />
        </mxCell>
        <mxCell id="nIQENBOH0POeJipGUg7n-16" value="Assembly device model" style="whiteSpace=wrap;html=1;" parent="1" vertex="1">
          <mxGeometry x="902.5" y="710" width="205" height="50" as="geometry" />
        </mxCell>
        <mxCell id="nIQENBOH0POeJipGUg7n-20" value="list device configuration from app center&lt;br style=&quot;border-color: var(--border-color);&quot;&gt;(for get height &amp;amp; width of&amp;nbsp;device_model)" style="whiteSpace=wrap;html=1;" parent="1" vertex="1">
          <mxGeometry x="890" y="580" width="230" height="50" as="geometry" />
        </mxCell>
        <mxCell id="nIQENBOH0POeJipGUg7n-38" value="" style="edgeStyle=orthogonalEdgeStyle;rounded=0;orthogonalLoop=1;jettySize=auto;html=1;" parent="1" source="nIQENBOH0POeJipGUg7n-22" target="nIQENBOH0POeJipGUg7n-37" edge="1">
          <mxGeometry relative="1" as="geometry" />
        </mxCell>
        <mxCell id="nIQENBOH0POeJipGUg7n-22" value="generate ios device list" style="whiteSpace=wrap;html=1;" parent="1" vertex="1">
          <mxGeometry x="902.5" y="840" width="205" height="50" as="geometry" />
        </mxCell>
        <mxCell id="nIQENBOH0POeJipGUg7n-26" value="" style="edgeStyle=orthogonalEdgeStyle;rounded=0;orthogonalLoop=1;jettySize=auto;html=1;" parent="1" source="nIQENBOH0POeJipGUg7n-27" target="nIQENBOH0POeJipGUg7n-29" edge="1">
          <mxGeometry relative="1" as="geometry" />
        </mxCell>
        <mxCell id="nIQENBOH0POeJipGUg7n-27" value="list android device set from app center" style="whiteSpace=wrap;html=1;" parent="1" vertex="1">
          <mxGeometry x="1292.5" y="320" width="205" height="50" as="geometry" />
        </mxCell>
        <mxCell id="nIQENBOH0POeJipGUg7n-28" value="" style="edgeStyle=orthogonalEdgeStyle;rounded=0;orthogonalLoop=1;jettySize=auto;html=1;" parent="1" source="nIQENBOH0POeJipGUg7n-29" target="nIQENBOH0POeJipGUg7n-33" edge="1">
          <mxGeometry relative="1" as="geometry" />
        </mxCell>
        <mxCell id="nIQENBOH0POeJipGUg7n-29" value="exclude device set, naming:&amp;nbsp; temp_android_xxx" style="whiteSpace=wrap;html=1;" parent="1" vertex="1">
          <mxGeometry x="1280" y="450" width="230" height="50" as="geometry" />
        </mxCell>
        <mxCell id="nIQENBOH0POeJipGUg7n-30" value="" style="edgeStyle=orthogonalEdgeStyle;rounded=0;orthogonalLoop=1;jettySize=auto;html=1;" parent="1" target="nIQENBOH0POeJipGUg7n-32" edge="1">
          <mxGeometry relative="1" as="geometry">
            <mxPoint x="1395" y="630" as="sourcePoint" />
          </mxGeometry>
        </mxCell>
        <mxCell id="nIQENBOH0POeJipGUg7n-31" value="" style="edgeStyle=orthogonalEdgeStyle;rounded=0;orthogonalLoop=1;jettySize=auto;html=1;" parent="1" source="nIQENBOH0POeJipGUg7n-32" target="nIQENBOH0POeJipGUg7n-34" edge="1">
          <mxGeometry relative="1" as="geometry" />
        </mxCell>
        <mxCell id="nIQENBOH0POeJipGUg7n-32" value="Assembly device model" style="whiteSpace=wrap;html=1;" parent="1" vertex="1">
          <mxGeometry x="1292.5" y="710" width="205" height="50" as="geometry" />
        </mxCell>
        <mxCell id="nIQENBOH0POeJipGUg7n-33" value="list device configuration from app center&lt;br style=&quot;border-color: var(--border-color);&quot;&gt;(for get height &amp;amp; width of&amp;nbsp;device_model)" style="whiteSpace=wrap;html=1;" parent="1" vertex="1">
          <mxGeometry x="1280" y="580" width="230" height="50" as="geometry" />
        </mxCell>
        <mxCell id="nIQENBOH0POeJipGUg7n-39" style="edgeStyle=orthogonalEdgeStyle;rounded=0;orthogonalLoop=1;jettySize=auto;html=1;entryX=0.5;entryY=0;entryDx=0;entryDy=0;" parent="1" source="nIQENBOH0POeJipGUg7n-34" target="nIQENBOH0POeJipGUg7n-37" edge="1">
          <mxGeometry relative="1" as="geometry" />
        </mxCell>
        <mxCell id="nIQENBOH0POeJipGUg7n-34" value="generate android device list" style="whiteSpace=wrap;html=1;" parent="1" vertex="1">
          <mxGeometry x="1292.5" y="840" width="205" height="50" as="geometry" />
        </mxCell>
        <mxCell id="nIQENBOH0POeJipGUg7n-41" style="edgeStyle=orthogonalEdgeStyle;rounded=0;orthogonalLoop=1;jettySize=auto;html=1;entryX=0.5;entryY=0;entryDx=0;entryDy=0;" parent="1" source="nIQENBOH0POeJipGUg7n-37" target="nIQENBOH0POeJipGUg7n-40" edge="1">
          <mxGeometry relative="1" as="geometry" />
        </mxCell>
        <mxCell id="nIQENBOH0POeJipGUg7n-37" value="device list = ios device list + android device list" style="whiteSpace=wrap;html=1;" parent="1" vertex="1">
          <mxGeometry x="1020" y="1000" width="350" height="50" as="geometry" />
        </mxCell>
        <mxCell id="nIQENBOH0POeJipGUg7n-40" value="end" style="ellipse;whiteSpace=wrap;html=1;" parent="1" vertex="1">
          <mxGeometry x="1135" y="1089" width="120" height="80" as="geometry" />
        </mxCell>
      </root>
    </mxGraphModel>
  </diagram>
  <diagram id="TzlNbBmQef9OyERR5LDm" name="Architecture">
    <mxGraphModel dx="1363" dy="741" grid="1" gridSize="10" guides="1" tooltips="1" connect="1" arrows="1" fold="1" page="1" pageScale="1" pageWidth="827" pageHeight="1169" math="0" shadow="0">
      <root>
        <mxCell id="0" />
        <mxCell id="1" parent="0" />
        <mxCell id="5tgLgPwbn1TW2CMex03K-24" value="" style="rounded=0;whiteSpace=wrap;html=1;" vertex="1" parent="1">
          <mxGeometry x="10" y="30" width="930" height="690" as="geometry" />
        </mxCell>
        <mxCell id="5tgLgPwbn1TW2CMex03K-30" value="" style="rounded=0;whiteSpace=wrap;html=1;dashed=1;shadow=0;" vertex="1" parent="1">
          <mxGeometry x="187" y="600" width="640" height="100" as="geometry" />
        </mxCell>
        <mxCell id="5tgLgPwbn1TW2CMex03K-16" value="" style="rounded=0;whiteSpace=wrap;html=1;dashed=1;shadow=0;" vertex="1" parent="1">
          <mxGeometry x="200" y="280" width="640" height="140" as="geometry" />
        </mxCell>
        <mxCell id="5tgLgPwbn1TW2CMex03K-13" style="edgeStyle=orthogonalEdgeStyle;rounded=0;orthogonalLoop=1;jettySize=auto;html=1;entryX=0.5;entryY=0;entryDx=0;entryDy=0;" edge="1" parent="1" source="5tgLgPwbn1TW2CMex03K-1" target="5tgLgPwbn1TW2CMex03K-7">
          <mxGeometry relative="1" as="geometry" />
        </mxCell>
        <mxCell id="5tgLgPwbn1TW2CMex03K-1" value="test-site-frontend" style="ellipse;whiteSpace=wrap;html=1;fillColor=#eeeeee;strokeColor=#36393d;" vertex="1" parent="1">
          <mxGeometry x="300" y="50" width="120" height="80" as="geometry" />
        </mxCell>
        <mxCell id="5tgLgPwbn1TW2CMex03K-14" value="" style="edgeStyle=orthogonalEdgeStyle;rounded=0;orthogonalLoop=1;jettySize=auto;html=1;" edge="1" parent="1" source="5tgLgPwbn1TW2CMex03K-2" target="5tgLgPwbn1TW2CMex03K-3">
          <mxGeometry relative="1" as="geometry" />
        </mxCell>
        <mxCell id="5tgLgPwbn1TW2CMex03K-2" value="test-report-frontend" style="ellipse;whiteSpace=wrap;html=1;fillColor=#eeeeee;strokeColor=#36393d;" vertex="1" parent="1">
          <mxGeometry x="680" y="50" width="120" height="80" as="geometry" />
        </mxCell>
        <mxCell id="5tgLgPwbn1TW2CMex03K-3" value="test-report-site" style="ellipse;whiteSpace=wrap;html=1;fillColor=#f8cecc;strokeColor=#b85450;" vertex="1" parent="1">
          <mxGeometry x="680" y="310" width="120" height="80" as="geometry" />
        </mxCell>
        <mxCell id="5tgLgPwbn1TW2CMex03K-4" value="UI" style="rounded=1;whiteSpace=wrap;html=1;fillColor=#fff2cc;strokeColor=#d6b656;" vertex="1" parent="1">
          <mxGeometry x="30" y="60" width="120" height="60" as="geometry" />
        </mxCell>
        <mxCell id="5tgLgPwbn1TW2CMex03K-5" value="Service" style="rounded=1;whiteSpace=wrap;html=1;fillColor=#fff2cc;strokeColor=#d6b656;" vertex="1" parent="1">
          <mxGeometry x="30" y="160" width="120" height="420" as="geometry" />
        </mxCell>
        <mxCell id="5tgLgPwbn1TW2CMex03K-6" value="Client" style="rounded=1;whiteSpace=wrap;html=1;fillColor=#fff2cc;strokeColor=#d6b656;" vertex="1" parent="1">
          <mxGeometry x="30" y="620" width="120" height="60" as="geometry" />
        </mxCell>
        <mxCell id="5tgLgPwbn1TW2CMex03K-23" value="" style="edgeStyle=orthogonalEdgeStyle;rounded=0;orthogonalLoop=1;jettySize=auto;html=1;entryX=0.25;entryY=0;entryDx=0;entryDy=0;" edge="1" parent="1" source="5tgLgPwbn1TW2CMex03K-7" target="5tgLgPwbn1TW2CMex03K-16">
          <mxGeometry relative="1" as="geometry" />
        </mxCell>
        <mxCell id="5tgLgPwbn1TW2CMex03K-7" value="test-site" style="ellipse;whiteSpace=wrap;html=1;fillColor=#f8cecc;strokeColor=#b85450;" vertex="1" parent="1">
          <mxGeometry x="300" y="160" width="120" height="80" as="geometry" />
        </mxCell>
        <mxCell id="5tgLgPwbn1TW2CMex03K-8" value="test-case-service" style="ellipse;whiteSpace=wrap;html=1;fillColor=#dae8fc;strokeColor=#6c8ebf;" vertex="1" parent="1">
          <mxGeometry x="240" y="310" width="120" height="80" as="geometry" />
        </mxCell>
        <mxCell id="5tgLgPwbn1TW2CMex03K-9" value="test-device-service" style="ellipse;whiteSpace=wrap;html=1;fillColor=#dae8fc;strokeColor=#6c8ebf;" vertex="1" parent="1">
          <mxGeometry x="540" y="310" width="120" height="80" as="geometry" />
        </mxCell>
        <mxCell id="5tgLgPwbn1TW2CMex03K-10" value="appcenter-service" style="ellipse;whiteSpace=wrap;html=1;fillColor=#dae8fc;strokeColor=#6c8ebf;" vertex="1" parent="1">
          <mxGeometry x="390" y="310" width="120" height="80" as="geometry" />
        </mxCell>
        <mxCell id="5tgLgPwbn1TW2CMex03K-15" value="" style="edgeStyle=orthogonalEdgeStyle;rounded=0;orthogonalLoop=1;jettySize=auto;html=1;" edge="1" parent="1" source="5tgLgPwbn1TW2CMex03K-11" target="5tgLgPwbn1TW2CMex03K-12">
          <mxGeometry relative="1" as="geometry" />
        </mxCell>
        <mxCell id="5tgLgPwbn1TW2CMex03K-11" value="test-daemon" style="ellipse;whiteSpace=wrap;html=1;fillColor=#e1d5e7;strokeColor=#9673a6;" vertex="1" parent="1">
          <mxGeometry x="300" y="610" width="120" height="80" as="geometry" />
        </mxCell>
        <mxCell id="5tgLgPwbn1TW2CMex03K-22" value="" style="edgeStyle=orthogonalEdgeStyle;rounded=0;orthogonalLoop=1;jettySize=auto;html=1;entryX=0.25;entryY=1;entryDx=0;entryDy=0;" edge="1" parent="1" source="5tgLgPwbn1TW2CMex03K-12" target="5tgLgPwbn1TW2CMex03K-16">
          <mxGeometry relative="1" as="geometry" />
        </mxCell>
        <mxCell id="5tgLgPwbn1TW2CMex03K-12" value="test-api" style="ellipse;whiteSpace=wrap;html=1;fillColor=#f8cecc;strokeColor=#b85450;" vertex="1" parent="1">
          <mxGeometry x="300" y="490" width="120" height="80" as="geometry" />
        </mxCell>
        <mxCell id="5tgLgPwbn1TW2CMex03K-27" value="internal service" style="text;strokeColor=none;fillColor=none;align=left;verticalAlign=middle;spacingLeft=4;spacingRight=4;overflow=hidden;points=[[0,0.5],[1,0.5]];portConstraint=eastwest;rotatable=0;whiteSpace=wrap;html=1;" vertex="1" parent="1">
          <mxGeometry x="200" y="280" width="110" height="30" as="geometry" />
        </mxCell>
        <mxCell id="5tgLgPwbn1TW2CMex03K-33" style="edgeStyle=orthogonalEdgeStyle;rounded=0;orthogonalLoop=1;jettySize=auto;html=1;entryX=1;entryY=0.5;entryDx=0;entryDy=0;" edge="1" parent="1" source="5tgLgPwbn1TW2CMex03K-28" target="5tgLgPwbn1TW2CMex03K-11">
          <mxGeometry relative="1" as="geometry" />
        </mxCell>
        <mxCell id="5tgLgPwbn1TW2CMex03K-34" style="edgeStyle=orthogonalEdgeStyle;rounded=0;orthogonalLoop=1;jettySize=auto;html=1;entryX=1;entryY=0.5;entryDx=0;entryDy=0;" edge="1" parent="1" source="5tgLgPwbn1TW2CMex03K-28" target="5tgLgPwbn1TW2CMex03K-12">
          <mxGeometry relative="1" as="geometry">
            <Array as="points">
              <mxPoint x="670" y="530" />
            </Array>
          </mxGeometry>
        </mxCell>
        <mxCell id="5tgLgPwbn1TW2CMex03K-28" value="test executor" style="ellipse;whiteSpace=wrap;html=1;fillColor=#d5e8d4;strokeColor=#82b366;" vertex="1" parent="1">
          <mxGeometry x="610" y="610" width="120" height="80" as="geometry" />
        </mxCell>
        <mxCell id="5tgLgPwbn1TW2CMex03K-31" value="mac mini" style="text;strokeColor=none;fillColor=none;align=left;verticalAlign=middle;spacingLeft=4;spacingRight=4;overflow=hidden;points=[[0,0.5],[1,0.5]];portConstraint=eastwest;rotatable=0;whiteSpace=wrap;html=1;" vertex="1" parent="1">
          <mxGeometry x="187" y="600" width="80" height="30" as="geometry" />
        </mxCell>
      </root>
    </mxGraphModel>
  </diagram>
  <diagram id="CNYidVgCwnZO6xE9Uqnl" name="test-case-service">
    <mxGraphModel dx="1908" dy="1038" grid="1" gridSize="10" guides="1" tooltips="1" connect="1" arrows="1" fold="1" page="1" pageScale="1" pageWidth="827" pageHeight="1169" math="0" shadow="0">
      <root>
        <mxCell id="0" />
        <mxCell id="1" parent="0" />
        <mxCell id="S8eui_ZaXEUrt6HRGxUd-1" value="" style="edgeStyle=orthogonalEdgeStyle;rounded=0;orthogonalLoop=1;jettySize=auto;html=1;" edge="1" parent="1" source="S8eui_ZaXEUrt6HRGxUd-2" target="S8eui_ZaXEUrt6HRGxUd-4">
          <mxGeometry relative="1" as="geometry" />
        </mxCell>
        <mxCell id="S8eui_ZaXEUrt6HRGxUd-2" value="start" style="ellipse;whiteSpace=wrap;html=1;" vertex="1" parent="1">
          <mxGeometry x="130" y="160" width="120" height="80" as="geometry" />
        </mxCell>
        <mxCell id="S8eui_ZaXEUrt6HRGxUd-3" value="" style="edgeStyle=orthogonalEdgeStyle;rounded=0;orthogonalLoop=1;jettySize=auto;html=1;" edge="1" parent="1" source="S8eui_ZaXEUrt6HRGxUd-4" target="S8eui_ZaXEUrt6HRGxUd-7">
          <mxGeometry relative="1" as="geometry" />
        </mxCell>
        <mxCell id="S8eui_ZaXEUrt6HRGxUd-4" value="check request" style="whiteSpace=wrap;html=1;" vertex="1" parent="1">
          <mxGeometry x="130" y="280" width="120" height="60" as="geometry" />
        </mxCell>
        <mxCell id="S8eui_ZaXEUrt6HRGxUd-5" value="make plan for&amp;nbsp;app regression test (mac mini)" style="shape=note;whiteSpace=wrap;html=1;backgroundOutline=1;darkOpacity=0.05;fillColor=#fff2cc;strokeColor=#d6b656;" vertex="1" parent="1">
          <mxGeometry x="50" y="20" width="300" height="100" as="geometry" />
        </mxCell>
        <mxCell id="S8eui_ZaXEUrt6HRGxUd-6" style="edgeStyle=orthogonalEdgeStyle;rounded=0;orthogonalLoop=1;jettySize=auto;html=1;entryX=0.5;entryY=0;entryDx=0;entryDy=0;" edge="1" parent="1" source="S8eui_ZaXEUrt6HRGxUd-7" target="S8eui_ZaXEUrt6HRGxUd-39">
          <mxGeometry relative="1" as="geometry" />
        </mxCell>
        <mxCell id="S8eui_ZaXEUrt6HRGxUd-7" value="&lt;pre style=&quot;background-color:#ffffff;color:#080808;font-family:&#39;JetBrains Mono&#39;,monospace;font-size:9.8pt;&quot;&gt;parse plan&lt;/pre&gt;" style="whiteSpace=wrap;html=1;" vertex="1" parent="1">
          <mxGeometry x="130" y="845" width="120" height="60" as="geometry" />
        </mxCell>
        <mxCell id="S8eui_ZaXEUrt6HRGxUd-8" value="" style="edgeStyle=orthogonalEdgeStyle;rounded=0;orthogonalLoop=1;jettySize=auto;html=1;" edge="1" parent="1" source="S8eui_ZaXEUrt6HRGxUd-13" target="S8eui_ZaXEUrt6HRGxUd-18">
          <mxGeometry relative="1" as="geometry" />
        </mxCell>
        <mxCell id="S8eui_ZaXEUrt6HRGxUd-9" value="y" style="edgeLabel;html=1;align=center;verticalAlign=middle;resizable=0;points=[];" vertex="1" connectable="0" parent="S8eui_ZaXEUrt6HRGxUd-8">
          <mxGeometry x="0.2" y="1" relative="1" as="geometry">
            <mxPoint as="offset" />
          </mxGeometry>
        </mxCell>
        <mxCell id="S8eui_ZaXEUrt6HRGxUd-10" style="edgeStyle=orthogonalEdgeStyle;rounded=0;orthogonalLoop=1;jettySize=auto;html=1;entryX=1;entryY=0.5;entryDx=0;entryDy=0;" edge="1" parent="1" source="S8eui_ZaXEUrt6HRGxUd-13" target="S8eui_ZaXEUrt6HRGxUd-4">
          <mxGeometry relative="1" as="geometry" />
        </mxCell>
        <mxCell id="S8eui_ZaXEUrt6HRGxUd-11" style="edgeStyle=orthogonalEdgeStyle;rounded=0;orthogonalLoop=1;jettySize=auto;html=1;entryX=1;entryY=0.5;entryDx=0;entryDy=0;" edge="1" parent="1" source="S8eui_ZaXEUrt6HRGxUd-13" target="S8eui_ZaXEUrt6HRGxUd-39">
          <mxGeometry relative="1" as="geometry">
            <mxPoint x="690" y="1570.0000000000005" as="targetPoint" />
            <Array as="points">
              <mxPoint x="691" y="310" />
              <mxPoint x="691" y="1410" />
            </Array>
          </mxGeometry>
        </mxCell>
        <mxCell id="S8eui_ZaXEUrt6HRGxUd-12" value="n" style="edgeLabel;html=1;align=center;verticalAlign=middle;resizable=0;points=[];" vertex="1" connectable="0" parent="S8eui_ZaXEUrt6HRGxUd-11">
          <mxGeometry x="-0.871" y="-2" relative="1" as="geometry">
            <mxPoint as="offset" />
          </mxGeometry>
        </mxCell>
        <mxCell id="S8eui_ZaXEUrt6HRGxUd-13" value="is include &lt;br&gt;upgrade test ?" style="rhombus;whiteSpace=wrap;html=1;" vertex="1" parent="1">
          <mxGeometry x="330" y="255" width="110" height="110" as="geometry" />
        </mxCell>
        <mxCell id="S8eui_ZaXEUrt6HRGxUd-14" value="" style="edgeStyle=orthogonalEdgeStyle;rounded=0;orthogonalLoop=1;jettySize=auto;html=1;" edge="1" parent="1" source="S8eui_ZaXEUrt6HRGxUd-18" target="S8eui_ZaXEUrt6HRGxUd-23">
          <mxGeometry relative="1" as="geometry" />
        </mxCell>
        <mxCell id="S8eui_ZaXEUrt6HRGxUd-15" value="y" style="edgeLabel;html=1;align=center;verticalAlign=middle;resizable=0;points=[];" vertex="1" connectable="0" parent="S8eui_ZaXEUrt6HRGxUd-14">
          <mxGeometry x="0.3636" y="-2" relative="1" as="geometry">
            <mxPoint y="1" as="offset" />
          </mxGeometry>
        </mxCell>
        <mxCell id="S8eui_ZaXEUrt6HRGxUd-16" style="edgeStyle=orthogonalEdgeStyle;rounded=0;orthogonalLoop=1;jettySize=auto;html=1;" edge="1" parent="1" source="S8eui_ZaXEUrt6HRGxUd-18">
          <mxGeometry relative="1" as="geometry">
            <mxPoint x="690" y="450" as="targetPoint" />
          </mxGeometry>
        </mxCell>
        <mxCell id="S8eui_ZaXEUrt6HRGxUd-17" value="n" style="edgeLabel;html=1;align=center;verticalAlign=middle;resizable=0;points=[];" vertex="1" connectable="0" parent="S8eui_ZaXEUrt6HRGxUd-16">
          <mxGeometry x="-0.2461" y="1" relative="1" as="geometry">
            <mxPoint as="offset" />
          </mxGeometry>
        </mxCell>
        <mxCell id="S8eui_ZaXEUrt6HRGxUd-18" value="Whether to choose the old version？" style="rhombus;whiteSpace=wrap;html=1;" vertex="1" parent="1">
          <mxGeometry x="330" y="395" width="110" height="110" as="geometry" />
        </mxCell>
        <mxCell id="S8eui_ZaXEUrt6HRGxUd-19" value="" style="edgeStyle=orthogonalEdgeStyle;rounded=0;orthogonalLoop=1;jettySize=auto;html=1;" edge="1" parent="1" source="S8eui_ZaXEUrt6HRGxUd-23" target="S8eui_ZaXEUrt6HRGxUd-26">
          <mxGeometry relative="1" as="geometry" />
        </mxCell>
        <mxCell id="S8eui_ZaXEUrt6HRGxUd-20" value="y" style="edgeLabel;html=1;align=center;verticalAlign=middle;resizable=0;points=[];" vertex="1" connectable="0" parent="S8eui_ZaXEUrt6HRGxUd-19">
          <mxGeometry x="-0.62" y="-1" relative="1" as="geometry">
            <mxPoint as="offset" />
          </mxGeometry>
        </mxCell>
        <mxCell id="S8eui_ZaXEUrt6HRGxUd-21" style="edgeStyle=orthogonalEdgeStyle;rounded=0;orthogonalLoop=1;jettySize=auto;html=1;" edge="1" parent="1" source="S8eui_ZaXEUrt6HRGxUd-23">
          <mxGeometry relative="1" as="geometry">
            <mxPoint x="690" y="584.9999999999998" as="targetPoint" />
          </mxGeometry>
        </mxCell>
        <mxCell id="S8eui_ZaXEUrt6HRGxUd-22" value="n" style="edgeLabel;html=1;align=center;verticalAlign=middle;resizable=0;points=[];" vertex="1" connectable="0" parent="S8eui_ZaXEUrt6HRGxUd-21">
          <mxGeometry x="-0.0953" relative="1" as="geometry">
            <mxPoint as="offset" />
          </mxGeometry>
        </mxCell>
        <mxCell id="S8eui_ZaXEUrt6HRGxUd-23" value="app version&amp;nbsp;&lt;br&gt;is exist?" style="rhombus;whiteSpace=wrap;html=1;" vertex="1" parent="1">
          <mxGeometry x="330" y="530" width="110" height="110" as="geometry" />
        </mxCell>
        <mxCell id="S8eui_ZaXEUrt6HRGxUd-24" style="edgeStyle=orthogonalEdgeStyle;rounded=0;orthogonalLoop=1;jettySize=auto;html=1;" edge="1" parent="1" source="S8eui_ZaXEUrt6HRGxUd-26">
          <mxGeometry relative="1" as="geometry">
            <mxPoint x="690" y="725.0000000000002" as="targetPoint" />
          </mxGeometry>
        </mxCell>
        <mxCell id="S8eui_ZaXEUrt6HRGxUd-25" value="n" style="edgeLabel;html=1;align=center;verticalAlign=middle;resizable=0;points=[];" vertex="1" connectable="0" parent="S8eui_ZaXEUrt6HRGxUd-24">
          <mxGeometry x="-0.1752" y="1" relative="1" as="geometry">
            <mxPoint as="offset" />
          </mxGeometry>
        </mxCell>
        <mxCell id="S8eui_ZaXEUrt6HRGxUd-26" value="Do all old app versions exist?" style="rhombus;whiteSpace=wrap;html=1;" vertex="1" parent="1">
          <mxGeometry x="330" y="670" width="110" height="110" as="geometry" />
        </mxCell>
        <mxCell id="S8eui_ZaXEUrt6HRGxUd-27" value="y" style="edgeStyle=orthogonalEdgeStyle;rounded=0;orthogonalLoop=1;jettySize=auto;html=1;" edge="1" parent="1" source="S8eui_ZaXEUrt6HRGxUd-31">
          <mxGeometry relative="1" as="geometry">
            <mxPoint x="403.70000000000005" y="1000" as="targetPoint" />
          </mxGeometry>
        </mxCell>
        <mxCell id="S8eui_ZaXEUrt6HRGxUd-28" style="edgeStyle=orthogonalEdgeStyle;rounded=0;orthogonalLoop=1;jettySize=auto;html=1;" edge="1" parent="1" source="S8eui_ZaXEUrt6HRGxUd-31">
          <mxGeometry relative="1" as="geometry">
            <mxPoint x="690" y="875.0000000000002" as="targetPoint" />
          </mxGeometry>
        </mxCell>
        <mxCell id="S8eui_ZaXEUrt6HRGxUd-29" value="n" style="edgeLabel;html=1;align=center;verticalAlign=middle;resizable=0;points=[];" vertex="1" connectable="0" parent="S8eui_ZaXEUrt6HRGxUd-28">
          <mxGeometry x="-0.063" y="1" relative="1" as="geometry">
            <mxPoint as="offset" />
          </mxGeometry>
        </mxCell>
        <mxCell id="S8eui_ZaXEUrt6HRGxUd-30" style="edgeStyle=orthogonalEdgeStyle;rounded=0;orthogonalLoop=1;jettySize=auto;html=1;entryX=1;entryY=0.5;entryDx=0;entryDy=0;" edge="1" parent="1" source="S8eui_ZaXEUrt6HRGxUd-31" target="S8eui_ZaXEUrt6HRGxUd-7">
          <mxGeometry relative="1" as="geometry" />
        </mxCell>
        <mxCell id="S8eui_ZaXEUrt6HRGxUd-31" value="check &lt;br&gt;executor branch&lt;br&gt;&amp;nbsp;is exist?" style="rhombus;whiteSpace=wrap;html=1;" vertex="1" parent="1">
          <mxGeometry x="340" y="810" width="130" height="130" as="geometry" />
        </mxCell>
        <mxCell id="S8eui_ZaXEUrt6HRGxUd-32" value="" style="edgeStyle=orthogonalEdgeStyle;rounded=0;orthogonalLoop=1;jettySize=auto;html=1;" edge="1" parent="1" target="S8eui_ZaXEUrt6HRGxUd-34">
          <mxGeometry relative="1" as="geometry">
            <mxPoint x="403.70000000000005" y="1050" as="sourcePoint" />
          </mxGeometry>
        </mxCell>
        <mxCell id="S8eui_ZaXEUrt6HRGxUd-33" value="" style="edgeStyle=orthogonalEdgeStyle;rounded=0;orthogonalLoop=1;jettySize=auto;html=1;" edge="1" parent="1" source="S8eui_ZaXEUrt6HRGxUd-34" target="S8eui_ZaXEUrt6HRGxUd-36">
          <mxGeometry relative="1" as="geometry" />
        </mxCell>
        <mxCell id="S8eui_ZaXEUrt6HRGxUd-34" value="init case_test_results to pending" style="whiteSpace=wrap;html=1;" vertex="1" parent="1">
          <mxGeometry x="307.39" y="1080" width="192.5" height="50" as="geometry" />
        </mxCell>
        <mxCell id="S8eui_ZaXEUrt6HRGxUd-35" value="" style="edgeStyle=orthogonalEdgeStyle;rounded=0;orthogonalLoop=1;jettySize=auto;html=1;" edge="1" parent="1" source="S8eui_ZaXEUrt6HRGxUd-36" target="S8eui_ZaXEUrt6HRGxUd-37">
          <mxGeometry relative="1" as="geometry" />
        </mxCell>
        <mxCell id="S8eui_ZaXEUrt6HRGxUd-36" value="init executor cases to pending" style="whiteSpace=wrap;html=1;" vertex="1" parent="1">
          <mxGeometry x="307.39" y="1169" width="192.5" height="50" as="geometry" />
        </mxCell>
        <mxCell id="S8eui_ZaXEUrt6HRGxUd-37" value="init plan to pending" style="whiteSpace=wrap;html=1;" vertex="1" parent="1">
          <mxGeometry x="307.39" y="1260" width="192.5" height="50" as="geometry" />
        </mxCell>
        <mxCell id="S8eui_ZaXEUrt6HRGxUd-38" value="init device_tasks to pending" style="whiteSpace=wrap;html=1;" vertex="1" parent="1">
          <mxGeometry x="307.39" y="1000" width="192.5" height="50" as="geometry" />
        </mxCell>
        <mxCell id="S8eui_ZaXEUrt6HRGxUd-39" value="end" style="ellipse;whiteSpace=wrap;html=1;" vertex="1" parent="1">
          <mxGeometry x="130" y="1370" width="120" height="80" as="geometry" />
        </mxCell>
        <mxCell id="S8eui_ZaXEUrt6HRGxUd-40" value="" style="edgeStyle=orthogonalEdgeStyle;rounded=0;orthogonalLoop=1;jettySize=auto;html=1;" edge="1" parent="1" source="S8eui_ZaXEUrt6HRGxUd-41" target="S8eui_ZaXEUrt6HRGxUd-44">
          <mxGeometry relative="1" as="geometry" />
        </mxCell>
        <mxCell id="S8eui_ZaXEUrt6HRGxUd-41" value="start" style="ellipse;whiteSpace=wrap;html=1;" vertex="1" parent="1">
          <mxGeometry x="870" y="161" width="120" height="80" as="geometry" />
        </mxCell>
        <mxCell id="S8eui_ZaXEUrt6HRGxUd-42" value="" style="edgeStyle=orthogonalEdgeStyle;rounded=0;orthogonalLoop=1;jettySize=auto;html=1;" edge="1" parent="1" source="S8eui_ZaXEUrt6HRGxUd-44" target="S8eui_ZaXEUrt6HRGxUd-46">
          <mxGeometry relative="1" as="geometry" />
        </mxCell>
        <mxCell id="S8eui_ZaXEUrt6HRGxUd-43" style="edgeStyle=orthogonalEdgeStyle;rounded=0;orthogonalLoop=1;jettySize=auto;html=1;" edge="1" parent="1" source="S8eui_ZaXEUrt6HRGxUd-44" target="S8eui_ZaXEUrt6HRGxUd-49">
          <mxGeometry relative="1" as="geometry">
            <mxPoint x="1060" y="306" as="targetPoint" />
          </mxGeometry>
        </mxCell>
        <mxCell id="S8eui_ZaXEUrt6HRGxUd-44" value="check request" style="whiteSpace=wrap;html=1;" vertex="1" parent="1">
          <mxGeometry x="870" y="276" width="120" height="60" as="geometry" />
        </mxCell>
        <mxCell id="S8eui_ZaXEUrt6HRGxUd-45" style="edgeStyle=orthogonalEdgeStyle;rounded=0;orthogonalLoop=1;jettySize=auto;html=1;entryX=0.5;entryY=0;entryDx=0;entryDy=0;" edge="1" parent="1" source="S8eui_ZaXEUrt6HRGxUd-46" target="S8eui_ZaXEUrt6HRGxUd-78">
          <mxGeometry relative="1" as="geometry">
            <mxPoint x="930" y="1571" as="targetPoint" />
          </mxGeometry>
        </mxCell>
        <mxCell id="S8eui_ZaXEUrt6HRGxUd-46" value="&lt;pre style=&quot;background-color:#ffffff;color:#080808;font-family:&#39;JetBrains Mono&#39;,monospace;font-size:9.8pt;&quot;&gt;parse plan&lt;/pre&gt;" style="whiteSpace=wrap;html=1;" vertex="1" parent="1">
          <mxGeometry x="870" y="836" width="120" height="60" as="geometry" />
        </mxCell>
        <mxCell id="S8eui_ZaXEUrt6HRGxUd-47" value="" style="edgeStyle=orthogonalEdgeStyle;rounded=0;orthogonalLoop=1;jettySize=auto;html=1;entryX=0.5;entryY=0.045;entryDx=0;entryDy=0;entryPerimeter=0;" edge="1" parent="1" source="S8eui_ZaXEUrt6HRGxUd-49" target="S8eui_ZaXEUrt6HRGxUd-54">
          <mxGeometry relative="1" as="geometry">
            <mxPoint x="1125" y="562" as="targetPoint" />
          </mxGeometry>
        </mxCell>
        <mxCell id="S8eui_ZaXEUrt6HRGxUd-48" value="y" style="edgeLabel;html=1;align=center;verticalAlign=middle;resizable=0;points=[];" connectable="0" vertex="1" parent="S8eui_ZaXEUrt6HRGxUd-47">
          <mxGeometry x="0.2" y="1" relative="1" as="geometry">
            <mxPoint as="offset" />
          </mxGeometry>
        </mxCell>
        <mxCell id="S8eui_ZaXEUrt6HRGxUd-49" value="is include &lt;br&gt;upgrade test ?" style="rhombus;whiteSpace=wrap;html=1;" vertex="1" parent="1">
          <mxGeometry x="1070" y="251" width="110" height="110" as="geometry" />
        </mxCell>
        <mxCell id="S8eui_ZaXEUrt6HRGxUd-50" value="" style="edgeStyle=orthogonalEdgeStyle;rounded=0;orthogonalLoop=1;jettySize=auto;html=1;" edge="1" parent="1" source="S8eui_ZaXEUrt6HRGxUd-54" target="S8eui_ZaXEUrt6HRGxUd-59">
          <mxGeometry relative="1" as="geometry" />
        </mxCell>
        <mxCell id="S8eui_ZaXEUrt6HRGxUd-51" value="y" style="edgeLabel;html=1;align=center;verticalAlign=middle;resizable=0;points=[];" connectable="0" vertex="1" parent="S8eui_ZaXEUrt6HRGxUd-50">
          <mxGeometry x="0.3636" y="-2" relative="1" as="geometry">
            <mxPoint y="1" as="offset" />
          </mxGeometry>
        </mxCell>
        <mxCell id="S8eui_ZaXEUrt6HRGxUd-52" style="edgeStyle=orthogonalEdgeStyle;rounded=0;orthogonalLoop=1;jettySize=auto;html=1;" edge="1" parent="1">
          <mxGeometry relative="1" as="geometry">
            <mxPoint x="1580" y="461" as="targetPoint" />
            <mxPoint x="1150" y="461" as="sourcePoint" />
          </mxGeometry>
        </mxCell>
        <mxCell id="S8eui_ZaXEUrt6HRGxUd-53" value="n" style="edgeLabel;html=1;align=center;verticalAlign=middle;resizable=0;points=[];" connectable="0" vertex="1" parent="S8eui_ZaXEUrt6HRGxUd-52">
          <mxGeometry x="-0.2461" y="1" relative="1" as="geometry">
            <mxPoint as="offset" />
          </mxGeometry>
        </mxCell>
        <mxCell id="S8eui_ZaXEUrt6HRGxUd-54" value="Whether to choose the old version？" style="rhombus;whiteSpace=wrap;html=1;" vertex="1" parent="1">
          <mxGeometry x="1070" y="400" width="110" height="110" as="geometry" />
        </mxCell>
        <mxCell id="S8eui_ZaXEUrt6HRGxUd-55" value="" style="edgeStyle=orthogonalEdgeStyle;rounded=0;orthogonalLoop=1;jettySize=auto;html=1;" edge="1" parent="1" source="S8eui_ZaXEUrt6HRGxUd-59" target="S8eui_ZaXEUrt6HRGxUd-62">
          <mxGeometry relative="1" as="geometry" />
        </mxCell>
        <mxCell id="S8eui_ZaXEUrt6HRGxUd-56" value="y" style="edgeLabel;html=1;align=center;verticalAlign=middle;resizable=0;points=[];" connectable="0" vertex="1" parent="S8eui_ZaXEUrt6HRGxUd-55">
          <mxGeometry x="-0.62" y="-1" relative="1" as="geometry">
            <mxPoint as="offset" />
          </mxGeometry>
        </mxCell>
        <mxCell id="S8eui_ZaXEUrt6HRGxUd-57" style="edgeStyle=orthogonalEdgeStyle;rounded=0;orthogonalLoop=1;jettySize=auto;html=1;" edge="1" parent="1">
          <mxGeometry relative="1" as="geometry">
            <mxPoint x="1580" y="596" as="targetPoint" />
            <mxPoint x="1150" y="596" as="sourcePoint" />
          </mxGeometry>
        </mxCell>
        <mxCell id="S8eui_ZaXEUrt6HRGxUd-58" value="n" style="edgeLabel;html=1;align=center;verticalAlign=middle;resizable=0;points=[];" connectable="0" vertex="1" parent="S8eui_ZaXEUrt6HRGxUd-57">
          <mxGeometry x="-0.0953" relative="1" as="geometry">
            <mxPoint as="offset" />
          </mxGeometry>
        </mxCell>
        <mxCell id="S8eui_ZaXEUrt6HRGxUd-59" value="app version&amp;nbsp;&lt;br&gt;is exist?" style="rhombus;whiteSpace=wrap;html=1;" vertex="1" parent="1">
          <mxGeometry x="1070" y="541" width="110" height="110" as="geometry" />
        </mxCell>
        <mxCell id="S8eui_ZaXEUrt6HRGxUd-60" style="edgeStyle=orthogonalEdgeStyle;rounded=0;orthogonalLoop=1;jettySize=auto;html=1;" edge="1" parent="1">
          <mxGeometry relative="1" as="geometry">
            <mxPoint x="1580" y="736" as="targetPoint" />
            <mxPoint x="1150" y="736" as="sourcePoint" />
          </mxGeometry>
        </mxCell>
        <mxCell id="S8eui_ZaXEUrt6HRGxUd-61" value="n" style="edgeLabel;html=1;align=center;verticalAlign=middle;resizable=0;points=[];" connectable="0" vertex="1" parent="S8eui_ZaXEUrt6HRGxUd-60">
          <mxGeometry x="-0.1752" y="1" relative="1" as="geometry">
            <mxPoint as="offset" />
          </mxGeometry>
        </mxCell>
        <mxCell id="S8eui_ZaXEUrt6HRGxUd-62" value="Do all old app versions exist?" style="rhombus;whiteSpace=wrap;html=1;" vertex="1" parent="1">
          <mxGeometry x="1070" y="681" width="110" height="110" as="geometry" />
        </mxCell>
        <mxCell id="S8eui_ZaXEUrt6HRGxUd-63" value="y" style="edgeStyle=orthogonalEdgeStyle;rounded=0;orthogonalLoop=1;jettySize=auto;html=1;" edge="1" parent="1" source="S8eui_ZaXEUrt6HRGxUd-67">
          <mxGeometry relative="1" as="geometry">
            <mxPoint x="1143.6999999999998" y="991" as="targetPoint" />
          </mxGeometry>
        </mxCell>
        <mxCell id="S8eui_ZaXEUrt6HRGxUd-64" style="edgeStyle=orthogonalEdgeStyle;rounded=0;orthogonalLoop=1;jettySize=auto;html=1;" edge="1" parent="1">
          <mxGeometry relative="1" as="geometry">
            <mxPoint x="1580" y="866" as="targetPoint" />
            <mxPoint x="1180" y="866" as="sourcePoint" />
          </mxGeometry>
        </mxCell>
        <mxCell id="S8eui_ZaXEUrt6HRGxUd-65" value="n" style="edgeLabel;html=1;align=center;verticalAlign=middle;resizable=0;points=[];" connectable="0" vertex="1" parent="S8eui_ZaXEUrt6HRGxUd-64">
          <mxGeometry x="-0.063" y="1" relative="1" as="geometry">
            <mxPoint as="offset" />
          </mxGeometry>
        </mxCell>
        <mxCell id="S8eui_ZaXEUrt6HRGxUd-66" style="edgeStyle=orthogonalEdgeStyle;rounded=0;orthogonalLoop=1;jettySize=auto;html=1;entryX=1;entryY=0.5;entryDx=0;entryDy=0;" edge="1" parent="1" source="S8eui_ZaXEUrt6HRGxUd-67" target="S8eui_ZaXEUrt6HRGxUd-46">
          <mxGeometry relative="1" as="geometry" />
        </mxCell>
        <mxCell id="S8eui_ZaXEUrt6HRGxUd-67" value="check &lt;br&gt;executor branch&lt;br&gt;&amp;nbsp;is exist?" style="rhombus;whiteSpace=wrap;html=1;" vertex="1" parent="1">
          <mxGeometry x="1080" y="801" width="130" height="130" as="geometry" />
        </mxCell>
        <mxCell id="S8eui_ZaXEUrt6HRGxUd-68" value="" style="edgeStyle=orthogonalEdgeStyle;rounded=0;orthogonalLoop=1;jettySize=auto;html=1;" edge="1" parent="1" target="S8eui_ZaXEUrt6HRGxUd-70">
          <mxGeometry relative="1" as="geometry">
            <mxPoint x="1143.6999999999998" y="1041" as="sourcePoint" />
          </mxGeometry>
        </mxCell>
        <mxCell id="S8eui_ZaXEUrt6HRGxUd-69" value="" style="edgeStyle=orthogonalEdgeStyle;rounded=0;orthogonalLoop=1;jettySize=auto;html=1;" edge="1" parent="1" source="S8eui_ZaXEUrt6HRGxUd-70" target="S8eui_ZaXEUrt6HRGxUd-72">
          <mxGeometry relative="1" as="geometry" />
        </mxCell>
        <mxCell id="S8eui_ZaXEUrt6HRGxUd-70" value="init case_test_results to pending" style="whiteSpace=wrap;html=1;" vertex="1" parent="1">
          <mxGeometry x="1047.3899999999999" y="1071" width="192.5" height="50" as="geometry" />
        </mxCell>
        <mxCell id="S8eui_ZaXEUrt6HRGxUd-71" value="" style="edgeStyle=orthogonalEdgeStyle;rounded=0;orthogonalLoop=1;jettySize=auto;html=1;" edge="1" parent="1" source="S8eui_ZaXEUrt6HRGxUd-72" target="S8eui_ZaXEUrt6HRGxUd-73">
          <mxGeometry relative="1" as="geometry" />
        </mxCell>
        <mxCell id="S8eui_ZaXEUrt6HRGxUd-72" value="init executor cases to pending" style="whiteSpace=wrap;html=1;" vertex="1" parent="1">
          <mxGeometry x="1047.3899999999999" y="1160" width="192.5" height="50" as="geometry" />
        </mxCell>
        <mxCell id="S8eui_ZaXEUrt6HRGxUd-73" value="init plan to pending" style="whiteSpace=wrap;html=1;" vertex="1" parent="1">
          <mxGeometry x="1047.3899999999999" y="1251" width="192.5" height="50" as="geometry" />
        </mxCell>
        <mxCell id="S8eui_ZaXEUrt6HRGxUd-74" value="init device_tasks to pending" style="whiteSpace=wrap;html=1;" vertex="1" parent="1">
          <mxGeometry x="1047.3899999999999" y="991" width="192.5" height="50" as="geometry" />
        </mxCell>
        <mxCell id="S8eui_ZaXEUrt6HRGxUd-75" style="edgeStyle=orthogonalEdgeStyle;rounded=0;orthogonalLoop=1;jettySize=auto;html=1;entryX=0.5;entryY=0;entryDx=0;entryDy=0;exitX=1;exitY=0.5;exitDx=0;exitDy=0;" edge="1" parent="1" source="S8eui_ZaXEUrt6HRGxUd-49" target="S8eui_ZaXEUrt6HRGxUd-102">
          <mxGeometry relative="1" as="geometry">
            <mxPoint x="1580" y="1681" as="targetPoint" />
            <mxPoint x="1180" y="320" as="sourcePoint" />
          </mxGeometry>
        </mxCell>
        <mxCell id="S8eui_ZaXEUrt6HRGxUd-76" value="n" style="edgeLabel;html=1;align=center;verticalAlign=middle;resizable=0;points=[];" connectable="0" vertex="1" parent="S8eui_ZaXEUrt6HRGxUd-75">
          <mxGeometry x="-0.8923" relative="1" as="geometry">
            <mxPoint as="offset" />
          </mxGeometry>
        </mxCell>
        <mxCell id="S8eui_ZaXEUrt6HRGxUd-77" style="edgeStyle=orthogonalEdgeStyle;rounded=0;orthogonalLoop=1;jettySize=auto;html=1;entryX=0;entryY=0.5;entryDx=0;entryDy=0;" edge="1" parent="1" source="S8eui_ZaXEUrt6HRGxUd-78" target="S8eui_ZaXEUrt6HRGxUd-80">
          <mxGeometry relative="1" as="geometry" />
        </mxCell>
        <mxCell id="S8eui_ZaXEUrt6HRGxUd-78" value="async to build test runs&lt;br&gt;（kafka topic: create-test-run-request )" style="rounded=0;whiteSpace=wrap;html=1;fillColor=#ffe6cc;strokeColor=#d79b00;" vertex="1" parent="1">
          <mxGeometry x="827" y="1409.25" width="210" height="43.5" as="geometry" />
        </mxCell>
        <mxCell id="S8eui_ZaXEUrt6HRGxUd-79" value="" style="edgeStyle=orthogonalEdgeStyle;rounded=0;orthogonalLoop=1;jettySize=auto;html=1;fillColor=#ffe6cc;strokeColor=#d79b00;" edge="1" parent="1" source="S8eui_ZaXEUrt6HRGxUd-80" target="S8eui_ZaXEUrt6HRGxUd-82">
          <mxGeometry relative="1" as="geometry" />
        </mxCell>
        <mxCell id="S8eui_ZaXEUrt6HRGxUd-80" value="&lt;pre style=&quot;background-color:#ffffff;color:#080808;font-family:&#39;JetBrains Mono&#39;,monospace;font-size:9.8pt;&quot;&gt;download executor source code from GitHub&lt;/pre&gt;" style="rounded=0;whiteSpace=wrap;html=1;fillColor=#ffe6cc;strokeColor=#d79b00;" vertex="1" parent="1">
          <mxGeometry x="1130" y="1401" width="380" height="60" as="geometry" />
        </mxCell>
        <mxCell id="S8eui_ZaXEUrt6HRGxUd-81" value="" style="edgeStyle=orthogonalEdgeStyle;rounded=0;orthogonalLoop=1;jettySize=auto;html=1;fillColor=#ffe6cc;strokeColor=#d79b00;" edge="1" parent="1" source="S8eui_ZaXEUrt6HRGxUd-82" target="S8eui_ZaXEUrt6HRGxUd-84">
          <mxGeometry relative="1" as="geometry" />
        </mxCell>
        <mxCell id="S8eui_ZaXEUrt6HRGxUd-82" value="&lt;pre style=&quot;background-color:#ffffff;color:#080808;font-family:&#39;JetBrains Mono&#39;,monospace;font-size:9.8pt;&quot;&gt;&lt;pre style=&quot;font-family: &amp;quot;JetBrains Mono&amp;quot;, monospace; font-size: 9.8pt;&quot;&gt;package executor to JAR file by maven&lt;/pre&gt;&lt;/pre&gt;" style="rounded=0;whiteSpace=wrap;html=1;fillColor=#ffe6cc;strokeColor=#d79b00;" vertex="1" parent="1">
          <mxGeometry x="1130" y="1541" width="380" height="60" as="geometry" />
        </mxCell>
        <mxCell id="S8eui_ZaXEUrt6HRGxUd-83" value="" style="edgeStyle=orthogonalEdgeStyle;rounded=0;orthogonalLoop=1;jettySize=auto;html=1;fillColor=#ffe6cc;strokeColor=#d79b00;" edge="1" parent="1" source="S8eui_ZaXEUrt6HRGxUd-84" target="S8eui_ZaXEUrt6HRGxUd-86">
          <mxGeometry relative="1" as="geometry" />
        </mxCell>
        <mxCell id="S8eui_ZaXEUrt6HRGxUd-84" value="&lt;pre style=&quot;background-color:#ffffff;color:#080808;font-family:&#39;JetBrains Mono&#39;,monospace;font-size:9.8pt;&quot;&gt;&lt;pre style=&quot;font-family: &amp;quot;JetBrains Mono&amp;quot;, monospace; font-size: 9.8pt;&quot;&gt;create device set&lt;/pre&gt;&lt;/pre&gt;" style="rounded=0;whiteSpace=wrap;html=1;fillColor=#ffe6cc;strokeColor=#d79b00;" vertex="1" parent="1">
          <mxGeometry x="1130" y="1681" width="380" height="60" as="geometry" />
        </mxCell>
        <mxCell id="S8eui_ZaXEUrt6HRGxUd-85" value="" style="edgeStyle=orthogonalEdgeStyle;rounded=0;orthogonalLoop=1;jettySize=auto;html=1;fillColor=#ffe6cc;strokeColor=#d79b00;" edge="1" parent="1" source="S8eui_ZaXEUrt6HRGxUd-86" target="S8eui_ZaXEUrt6HRGxUd-88">
          <mxGeometry relative="1" as="geometry" />
        </mxCell>
        <mxCell id="S8eui_ZaXEUrt6HRGxUd-86" value="&lt;pre style=&quot;background-color: rgb(255, 255, 255); font-family: &amp;quot;JetBrains Mono&amp;quot;, monospace; font-size: 9.8pt;&quot;&gt;&lt;pre style=&quot;font-family: &amp;quot;JetBrains Mono&amp;quot;, monospace; font-size: 9.8pt;&quot;&gt;&lt;font color=&quot;#080808&quot;&gt;get download url of latest app from app center&lt;br&gt;&lt;/font&gt;&lt;font color=&quot;#ff0000&quot;&gt;(apk or ipa)&lt;/font&gt;&lt;/pre&gt;&lt;/pre&gt;" style="rounded=0;whiteSpace=wrap;html=1;fillColor=#ffe6cc;strokeColor=#d79b00;" vertex="1" parent="1">
          <mxGeometry x="1130" y="1821" width="380" height="60" as="geometry" />
        </mxCell>
        <mxCell id="S8eui_ZaXEUrt6HRGxUd-87" value="" style="edgeStyle=orthogonalEdgeStyle;rounded=0;orthogonalLoop=1;jettySize=auto;html=1;fillColor=#ffe6cc;strokeColor=#d79b00;" edge="1" parent="1" source="S8eui_ZaXEUrt6HRGxUd-88" target="S8eui_ZaXEUrt6HRGxUd-90">
          <mxGeometry relative="1" as="geometry" />
        </mxCell>
        <mxCell id="S8eui_ZaXEUrt6HRGxUd-88" value="&lt;pre style=&quot;background-color:#ffffff;color:#080808;font-family:&#39;JetBrains Mono&#39;,monospace;font-size:9.8pt;&quot;&gt;&lt;pre style=&quot;font-family: &amp;quot;JetBrains Mono&amp;quot;, monospace; font-size: 9.8pt;&quot;&gt;&lt;pre style=&quot;border-color: var(--border-color); font-size: 9.8pt; font-family: &amp;quot;JetBrains Mono&amp;quot;, monospace;&quot;&gt; download the latest app from app center&lt;/pre&gt;&lt;/pre&gt;&lt;/pre&gt;" style="rounded=0;whiteSpace=wrap;html=1;fillColor=#ffe6cc;strokeColor=#d79b00;" vertex="1" parent="1">
          <mxGeometry x="1130" y="1961" width="380" height="60" as="geometry" />
        </mxCell>
        <mxCell id="S8eui_ZaXEUrt6HRGxUd-89" value="" style="edgeStyle=orthogonalEdgeStyle;rounded=0;orthogonalLoop=1;jettySize=auto;html=1;fillColor=#ffe6cc;strokeColor=#d79b00;" edge="1" parent="1" source="S8eui_ZaXEUrt6HRGxUd-90" target="S8eui_ZaXEUrt6HRGxUd-92">
          <mxGeometry relative="1" as="geometry" />
        </mxCell>
        <mxCell id="S8eui_ZaXEUrt6HRGxUd-90" value="&lt;pre style=&quot;background-color: rgb(255, 255, 255); font-family: &amp;quot;JetBrains Mono&amp;quot;, monospace; font-size: 9.8pt;&quot;&gt;&lt;pre style=&quot;font-family: &amp;quot;JetBrains Mono&amp;quot;, monospace; font-size: 9.8pt;&quot;&gt;&lt;pre style=&quot;border-color: var(--border-color); font-size: 9.8pt; font-family: &amp;quot;JetBrains Mono&amp;quot;, monospace;&quot;&gt;&lt;font color=&quot;#080808&quot;&gt;create test run on app center&lt;br&gt;&lt;/font&gt;&lt;font color=&quot;#ff0000&quot;&gt;(for wonder-ios-uat &amp;amp; wonder-android-uat)&lt;/font&gt;&lt;/pre&gt;&lt;/pre&gt;&lt;/pre&gt;" style="rounded=0;whiteSpace=wrap;html=1;fillColor=#ffe6cc;strokeColor=#d79b00;" vertex="1" parent="1">
          <mxGeometry x="1130" y="2101" width="380" height="60" as="geometry" />
        </mxCell>
        <mxCell id="S8eui_ZaXEUrt6HRGxUd-91" value="" style="edgeStyle=orthogonalEdgeStyle;rounded=0;orthogonalLoop=1;jettySize=auto;html=1;fillColor=#ffe6cc;strokeColor=#d79b00;" edge="1" parent="1" source="S8eui_ZaXEUrt6HRGxUd-92" target="S8eui_ZaXEUrt6HRGxUd-94">
          <mxGeometry relative="1" as="geometry" />
        </mxCell>
        <mxCell id="S8eui_ZaXEUrt6HRGxUd-92" value="&lt;pre style=&quot;background-color:#ffffff;color:#080808;font-family:&#39;JetBrains Mono&#39;,monospace;font-size:9.8pt;&quot;&gt;&lt;pre style=&quot;font-family: &amp;quot;JetBrains Mono&amp;quot;, monospace; font-size: 9.8pt;&quot;&gt;&lt;pre style=&quot;border-color: var(--border-color); font-size: 9.8pt; font-family: &amp;quot;JetBrains Mono&amp;quot;, monospace;&quot;&gt;init hash file list on app center&lt;/pre&gt;&lt;/pre&gt;&lt;/pre&gt;" style="rounded=0;whiteSpace=wrap;html=1;fillColor=#ffe6cc;strokeColor=#d79b00;" vertex="1" parent="1">
          <mxGeometry x="1130" y="2241" width="380" height="60" as="geometry" />
        </mxCell>
        <mxCell id="S8eui_ZaXEUrt6HRGxUd-93" value="" style="edgeStyle=orthogonalEdgeStyle;rounded=0;orthogonalLoop=1;jettySize=auto;html=1;fillColor=#ffe6cc;strokeColor=#d79b00;" edge="1" parent="1" source="S8eui_ZaXEUrt6HRGxUd-94" target="S8eui_ZaXEUrt6HRGxUd-96">
          <mxGeometry relative="1" as="geometry" />
        </mxCell>
        <mxCell id="S8eui_ZaXEUrt6HRGxUd-94" value="&lt;pre style=&quot;background-color:#ffffff;color:#080808;font-family:&#39;JetBrains Mono&#39;,monospace;font-size:9.8pt;&quot;&gt;&lt;pre style=&quot;font-family: &amp;quot;JetBrains Mono&amp;quot;, monospace; font-size: 9.8pt;&quot;&gt;upload app-file &amp;amp; test-file to app center&lt;/pre&gt;&lt;/pre&gt;" style="rounded=0;whiteSpace=wrap;html=1;fillColor=#ffe6cc;strokeColor=#d79b00;" vertex="1" parent="1">
          <mxGeometry x="1130" y="2381" width="380" height="60" as="geometry" />
        </mxCell>
        <mxCell id="S8eui_ZaXEUrt6HRGxUd-95" value="" style="edgeStyle=orthogonalEdgeStyle;rounded=0;orthogonalLoop=1;jettySize=auto;html=1;fillColor=#ffe6cc;strokeColor=#d79b00;" edge="1" parent="1" source="S8eui_ZaXEUrt6HRGxUd-96" target="S8eui_ZaXEUrt6HRGxUd-98">
          <mxGeometry relative="1" as="geometry" />
        </mxCell>
        <mxCell id="S8eui_ZaXEUrt6HRGxUd-96" value="&lt;pre style=&quot;background-color:#ffffff;color:#080808;font-family:&#39;JetBrains Mono&#39;,monospace;font-size:9.8pt;&quot;&gt;&lt;pre style=&quot;font-family: &amp;quot;JetBrains Mono&amp;quot;, monospace; font-size: 9.8pt;&quot;&gt;trigger test on app center&lt;/pre&gt;&lt;/pre&gt;" style="rounded=0;whiteSpace=wrap;html=1;fillColor=#ffe6cc;strokeColor=#d79b00;" vertex="1" parent="1">
          <mxGeometry x="1130" y="2521" width="380" height="60" as="geometry" />
        </mxCell>
        <mxCell id="S8eui_ZaXEUrt6HRGxUd-97" value="" style="edgeStyle=orthogonalEdgeStyle;rounded=0;orthogonalLoop=1;jettySize=auto;html=1;fillColor=#ffe6cc;strokeColor=#d79b00;" edge="1" parent="1" source="S8eui_ZaXEUrt6HRGxUd-98" target="S8eui_ZaXEUrt6HRGxUd-100">
          <mxGeometry relative="1" as="geometry" />
        </mxCell>
        <mxCell id="S8eui_ZaXEUrt6HRGxUd-98" value="&lt;pre style=&quot;background-color:#ffffff;color:#080808;font-family:&#39;JetBrains Mono&#39;,monospace;font-size:9.8pt;&quot;&gt;&lt;pre style=&quot;font-family: &amp;quot;JetBrains Mono&amp;quot;, monospace; font-size: 9.8pt;&quot;&gt;validate test state on app center&lt;/pre&gt;&lt;/pre&gt;" style="rounded=0;whiteSpace=wrap;html=1;fillColor=#ffe6cc;strokeColor=#d79b00;" vertex="1" parent="1">
          <mxGeometry x="1130" y="2661" width="380" height="60" as="geometry" />
        </mxCell>
        <mxCell id="S8eui_ZaXEUrt6HRGxUd-99" style="edgeStyle=orthogonalEdgeStyle;rounded=0;orthogonalLoop=1;jettySize=auto;html=1;entryX=0.5;entryY=0;entryDx=0;entryDy=0;" edge="1" parent="1" source="S8eui_ZaXEUrt6HRGxUd-100" target="S8eui_ZaXEUrt6HRGxUd-101">
          <mxGeometry relative="1" as="geometry" />
        </mxCell>
        <mxCell id="S8eui_ZaXEUrt6HRGxUd-100" value="&lt;pre style=&quot;background-color:#ffffff;color:#080808;font-family:&#39;JetBrains Mono&#39;,monospace;font-size:9.8pt;&quot;&gt;&lt;pre style=&quot;font-family: &amp;quot;JetBrains Mono&amp;quot;, monospace; font-size: 9.8pt;&quot;&gt;modify plan: test_runs&lt;/pre&gt;&lt;/pre&gt;" style="rounded=0;whiteSpace=wrap;html=1;fillColor=#ffe6cc;strokeColor=#d79b00;" vertex="1" parent="1">
          <mxGeometry x="1130" y="2801" width="380" height="60" as="geometry" />
        </mxCell>
        <mxCell id="S8eui_ZaXEUrt6HRGxUd-101" value="end" style="ellipse;whiteSpace=wrap;html=1;" vertex="1" parent="1">
          <mxGeometry x="1260" y="2931" width="120" height="80" as="geometry" />
        </mxCell>
        <mxCell id="S8eui_ZaXEUrt6HRGxUd-102" value="end" style="ellipse;whiteSpace=wrap;html=1;" vertex="1" parent="1">
          <mxGeometry x="1520" y="1270" width="120" height="80" as="geometry" />
        </mxCell>
        <mxCell id="S8eui_ZaXEUrt6HRGxUd-103" value="make plan for&amp;nbsp;app regression test (appcenter)" style="shape=note;whiteSpace=wrap;html=1;backgroundOutline=1;darkOpacity=0.05;fillColor=#fff2cc;strokeColor=#d6b656;" vertex="1" parent="1">
          <mxGeometry x="860" y="10" width="300" height="100" as="geometry" />
        </mxCell>
        <mxCell id="S8eui_ZaXEUrt6HRGxUd-104" value="" style="strokeWidth=2;html=1;shape=mxgraph.flowchart.annotation_1;align=left;pointerEvents=1;" vertex="1" parent="1">
          <mxGeometry x="1060" y="1681" width="50" height="1039" as="geometry" />
        </mxCell>
        <mxCell id="S8eui_ZaXEUrt6HRGxUd-105" value="for ios: create a test run&lt;br&gt;for android:&amp;nbsp; create a test run" style="strokeWidth=2;html=1;shape=mxgraph.flowchart.document2;whiteSpace=wrap;size=0.25;" vertex="1" parent="1">
          <mxGeometry x="870" y="1681" width="170" height="90" as="geometry" />
        </mxCell>
        <mxCell id="S8eui_ZaXEUrt6HRGxUd-106" value="" style="edgeStyle=orthogonalEdgeStyle;rounded=0;orthogonalLoop=1;jettySize=auto;html=1;" edge="1" parent="1" source="S8eui_ZaXEUrt6HRGxUd-107" target="S8eui_ZaXEUrt6HRGxUd-109">
          <mxGeometry relative="1" as="geometry" />
        </mxCell>
        <mxCell id="S8eui_ZaXEUrt6HRGxUd-107" value="start" style="ellipse;whiteSpace=wrap;html=1;" vertex="1" parent="1">
          <mxGeometry x="1730" y="200" width="120" height="80" as="geometry" />
        </mxCell>
        <mxCell id="S8eui_ZaXEUrt6HRGxUd-108" value="" style="edgeStyle=orthogonalEdgeStyle;rounded=0;orthogonalLoop=1;jettySize=auto;html=1;" edge="1" parent="1" source="S8eui_ZaXEUrt6HRGxUd-109" target="S8eui_ZaXEUrt6HRGxUd-112">
          <mxGeometry relative="1" as="geometry" />
        </mxCell>
        <mxCell id="S8eui_ZaXEUrt6HRGxUd-109" value="check request" style="whiteSpace=wrap;html=1;" vertex="1" parent="1">
          <mxGeometry x="1730" y="320" width="120" height="60" as="geometry" />
        </mxCell>
        <mxCell id="S8eui_ZaXEUrt6HRGxUd-110" value="" style="edgeStyle=orthogonalEdgeStyle;rounded=0;orthogonalLoop=1;jettySize=auto;html=1;" edge="1" parent="1" source="S8eui_ZaXEUrt6HRGxUd-112" target="S8eui_ZaXEUrt6HRGxUd-135">
          <mxGeometry relative="1" as="geometry" />
        </mxCell>
        <mxCell id="S8eui_ZaXEUrt6HRGxUd-111" style="edgeStyle=orthogonalEdgeStyle;rounded=0;orthogonalLoop=1;jettySize=auto;html=1;entryX=0.5;entryY=0;entryDx=0;entryDy=0;" edge="1" parent="1" source="S8eui_ZaXEUrt6HRGxUd-112" target="S8eui_ZaXEUrt6HRGxUd-144">
          <mxGeometry relative="1" as="geometry" />
        </mxCell>
        <mxCell id="S8eui_ZaXEUrt6HRGxUd-112" value="&lt;pre style=&quot;background-color:#ffffff;color:#080808;font-family:&#39;JetBrains Mono&#39;,monospace;font-size:9.8pt;&quot;&gt;parse plan&lt;/pre&gt;" style="whiteSpace=wrap;html=1;" vertex="1" parent="1">
          <mxGeometry x="1730" y="885" width="120" height="60" as="geometry" />
        </mxCell>
        <mxCell id="S8eui_ZaXEUrt6HRGxUd-113" value="" style="edgeStyle=orthogonalEdgeStyle;rounded=0;orthogonalLoop=1;jettySize=auto;html=1;" edge="1" parent="1" source="S8eui_ZaXEUrt6HRGxUd-118" target="S8eui_ZaXEUrt6HRGxUd-123">
          <mxGeometry relative="1" as="geometry" />
        </mxCell>
        <mxCell id="S8eui_ZaXEUrt6HRGxUd-114" value="y" style="edgeLabel;html=1;align=center;verticalAlign=middle;resizable=0;points=[];" vertex="1" connectable="0" parent="S8eui_ZaXEUrt6HRGxUd-113">
          <mxGeometry x="0.2" y="1" relative="1" as="geometry">
            <mxPoint as="offset" />
          </mxGeometry>
        </mxCell>
        <mxCell id="S8eui_ZaXEUrt6HRGxUd-115" style="edgeStyle=orthogonalEdgeStyle;rounded=0;orthogonalLoop=1;jettySize=auto;html=1;entryX=1;entryY=0.5;entryDx=0;entryDy=0;" edge="1" parent="1" source="S8eui_ZaXEUrt6HRGxUd-118" target="S8eui_ZaXEUrt6HRGxUd-109">
          <mxGeometry relative="1" as="geometry" />
        </mxCell>
        <mxCell id="S8eui_ZaXEUrt6HRGxUd-116" style="edgeStyle=orthogonalEdgeStyle;rounded=0;orthogonalLoop=1;jettySize=auto;html=1;entryX=1;entryY=0.5;entryDx=0;entryDy=0;" edge="1" parent="1" source="S8eui_ZaXEUrt6HRGxUd-118" target="S8eui_ZaXEUrt6HRGxUd-144">
          <mxGeometry relative="1" as="geometry">
            <mxPoint x="2290" y="1610.0000000000005" as="targetPoint" />
            <Array as="points">
              <mxPoint x="2291" y="350" />
              <mxPoint x="2291" y="1450" />
            </Array>
          </mxGeometry>
        </mxCell>
        <mxCell id="S8eui_ZaXEUrt6HRGxUd-117" value="n" style="edgeLabel;html=1;align=center;verticalAlign=middle;resizable=0;points=[];" vertex="1" connectable="0" parent="S8eui_ZaXEUrt6HRGxUd-116">
          <mxGeometry x="-0.871" y="-2" relative="1" as="geometry">
            <mxPoint as="offset" />
          </mxGeometry>
        </mxCell>
        <mxCell id="S8eui_ZaXEUrt6HRGxUd-118" value="&lt;strike&gt;is include &lt;br&gt;upgrade test ?&lt;/strike&gt;" style="rhombus;whiteSpace=wrap;html=1;fillColor=#f5f5f5;gradientColor=#b3b3b3;strokeColor=#666666;" vertex="1" parent="1">
          <mxGeometry x="1930" y="295" width="110" height="110" as="geometry" />
        </mxCell>
        <mxCell id="S8eui_ZaXEUrt6HRGxUd-119" value="" style="edgeStyle=orthogonalEdgeStyle;rounded=0;orthogonalLoop=1;jettySize=auto;html=1;" edge="1" parent="1" source="S8eui_ZaXEUrt6HRGxUd-123" target="S8eui_ZaXEUrt6HRGxUd-128">
          <mxGeometry relative="1" as="geometry" />
        </mxCell>
        <mxCell id="S8eui_ZaXEUrt6HRGxUd-120" value="y" style="edgeLabel;html=1;align=center;verticalAlign=middle;resizable=0;points=[];" vertex="1" connectable="0" parent="S8eui_ZaXEUrt6HRGxUd-119">
          <mxGeometry x="0.3636" y="-2" relative="1" as="geometry">
            <mxPoint y="1" as="offset" />
          </mxGeometry>
        </mxCell>
        <mxCell id="S8eui_ZaXEUrt6HRGxUd-121" style="edgeStyle=orthogonalEdgeStyle;rounded=0;orthogonalLoop=1;jettySize=auto;html=1;" edge="1" parent="1" source="S8eui_ZaXEUrt6HRGxUd-123">
          <mxGeometry relative="1" as="geometry">
            <mxPoint x="2290" y="490" as="targetPoint" />
          </mxGeometry>
        </mxCell>
        <mxCell id="S8eui_ZaXEUrt6HRGxUd-122" value="n" style="edgeLabel;html=1;align=center;verticalAlign=middle;resizable=0;points=[];" vertex="1" connectable="0" parent="S8eui_ZaXEUrt6HRGxUd-121">
          <mxGeometry x="-0.2461" y="1" relative="1" as="geometry">
            <mxPoint as="offset" />
          </mxGeometry>
        </mxCell>
        <mxCell id="S8eui_ZaXEUrt6HRGxUd-123" value="&lt;strike&gt;Whether to choose the old version？&lt;/strike&gt;" style="rhombus;whiteSpace=wrap;html=1;fillColor=#f5f5f5;gradientColor=#b3b3b3;strokeColor=#666666;" vertex="1" parent="1">
          <mxGeometry x="1930" y="435" width="110" height="110" as="geometry" />
        </mxCell>
        <mxCell id="S8eui_ZaXEUrt6HRGxUd-124" value="" style="edgeStyle=orthogonalEdgeStyle;rounded=0;orthogonalLoop=1;jettySize=auto;html=1;" edge="1" parent="1" source="S8eui_ZaXEUrt6HRGxUd-128" target="S8eui_ZaXEUrt6HRGxUd-131">
          <mxGeometry relative="1" as="geometry" />
        </mxCell>
        <mxCell id="S8eui_ZaXEUrt6HRGxUd-125" value="y" style="edgeLabel;html=1;align=center;verticalAlign=middle;resizable=0;points=[];" vertex="1" connectable="0" parent="S8eui_ZaXEUrt6HRGxUd-124">
          <mxGeometry x="-0.62" y="-1" relative="1" as="geometry">
            <mxPoint as="offset" />
          </mxGeometry>
        </mxCell>
        <mxCell id="S8eui_ZaXEUrt6HRGxUd-126" style="edgeStyle=orthogonalEdgeStyle;rounded=0;orthogonalLoop=1;jettySize=auto;html=1;" edge="1" parent="1" source="S8eui_ZaXEUrt6HRGxUd-128">
          <mxGeometry relative="1" as="geometry">
            <mxPoint x="2290" y="624.9999999999998" as="targetPoint" />
          </mxGeometry>
        </mxCell>
        <mxCell id="S8eui_ZaXEUrt6HRGxUd-127" value="n" style="edgeLabel;html=1;align=center;verticalAlign=middle;resizable=0;points=[];" vertex="1" connectable="0" parent="S8eui_ZaXEUrt6HRGxUd-126">
          <mxGeometry x="-0.0953" relative="1" as="geometry">
            <mxPoint as="offset" />
          </mxGeometry>
        </mxCell>
        <mxCell id="S8eui_ZaXEUrt6HRGxUd-128" value="app version&amp;nbsp;&lt;br&gt;is exist?" style="rhombus;whiteSpace=wrap;html=1;" vertex="1" parent="1">
          <mxGeometry x="1930" y="570" width="110" height="110" as="geometry" />
        </mxCell>
        <mxCell id="S8eui_ZaXEUrt6HRGxUd-129" style="edgeStyle=orthogonalEdgeStyle;rounded=0;orthogonalLoop=1;jettySize=auto;html=1;" edge="1" parent="1" source="S8eui_ZaXEUrt6HRGxUd-131">
          <mxGeometry relative="1" as="geometry">
            <mxPoint x="2290" y="765.0000000000002" as="targetPoint" />
          </mxGeometry>
        </mxCell>
        <mxCell id="S8eui_ZaXEUrt6HRGxUd-130" value="n" style="edgeLabel;html=1;align=center;verticalAlign=middle;resizable=0;points=[];" vertex="1" connectable="0" parent="S8eui_ZaXEUrt6HRGxUd-129">
          <mxGeometry x="-0.1752" y="1" relative="1" as="geometry">
            <mxPoint as="offset" />
          </mxGeometry>
        </mxCell>
        <mxCell id="S8eui_ZaXEUrt6HRGxUd-131" value="&lt;strike&gt;Do all old app versions exist?&lt;/strike&gt;" style="rhombus;whiteSpace=wrap;html=1;fillColor=#f5f5f5;gradientColor=#b3b3b3;strokeColor=#666666;" vertex="1" parent="1">
          <mxGeometry x="1930" y="710" width="110" height="110" as="geometry" />
        </mxCell>
        <mxCell id="S8eui_ZaXEUrt6HRGxUd-132" value="y" style="edgeStyle=orthogonalEdgeStyle;rounded=0;orthogonalLoop=1;jettySize=auto;html=1;" edge="1" parent="1" source="S8eui_ZaXEUrt6HRGxUd-135">
          <mxGeometry relative="1" as="geometry">
            <mxPoint x="2003.7" y="1040" as="targetPoint" />
          </mxGeometry>
        </mxCell>
        <mxCell id="S8eui_ZaXEUrt6HRGxUd-133" style="edgeStyle=orthogonalEdgeStyle;rounded=0;orthogonalLoop=1;jettySize=auto;html=1;" edge="1" parent="1" source="S8eui_ZaXEUrt6HRGxUd-135">
          <mxGeometry relative="1" as="geometry">
            <mxPoint x="2290" y="915.0000000000002" as="targetPoint" />
          </mxGeometry>
        </mxCell>
        <mxCell id="S8eui_ZaXEUrt6HRGxUd-134" value="n" style="edgeLabel;html=1;align=center;verticalAlign=middle;resizable=0;points=[];" vertex="1" connectable="0" parent="S8eui_ZaXEUrt6HRGxUd-133">
          <mxGeometry x="-0.063" y="1" relative="1" as="geometry">
            <mxPoint as="offset" />
          </mxGeometry>
        </mxCell>
        <mxCell id="S8eui_ZaXEUrt6HRGxUd-135" value="check &lt;br&gt;executor branch&lt;br&gt;&amp;nbsp;is exist?" style="rhombus;whiteSpace=wrap;html=1;" vertex="1" parent="1">
          <mxGeometry x="1940" y="850" width="130" height="130" as="geometry" />
        </mxCell>
        <mxCell id="S8eui_ZaXEUrt6HRGxUd-136" value="" style="edgeStyle=orthogonalEdgeStyle;rounded=0;orthogonalLoop=1;jettySize=auto;html=1;" edge="1" parent="1" target="S8eui_ZaXEUrt6HRGxUd-138">
          <mxGeometry relative="1" as="geometry">
            <mxPoint x="2003.7" y="1090" as="sourcePoint" />
          </mxGeometry>
        </mxCell>
        <mxCell id="S8eui_ZaXEUrt6HRGxUd-137" value="" style="edgeStyle=orthogonalEdgeStyle;rounded=0;orthogonalLoop=1;jettySize=auto;html=1;" edge="1" parent="1" source="S8eui_ZaXEUrt6HRGxUd-138" target="S8eui_ZaXEUrt6HRGxUd-140">
          <mxGeometry relative="1" as="geometry" />
        </mxCell>
        <mxCell id="S8eui_ZaXEUrt6HRGxUd-138" value="init case_test_results to pending" style="whiteSpace=wrap;html=1;" vertex="1" parent="1">
          <mxGeometry x="1907.3899999999999" y="1120" width="192.5" height="50" as="geometry" />
        </mxCell>
        <mxCell id="S8eui_ZaXEUrt6HRGxUd-139" value="" style="edgeStyle=orthogonalEdgeStyle;rounded=0;orthogonalLoop=1;jettySize=auto;html=1;" edge="1" parent="1" source="S8eui_ZaXEUrt6HRGxUd-140" target="S8eui_ZaXEUrt6HRGxUd-142">
          <mxGeometry relative="1" as="geometry" />
        </mxCell>
        <mxCell id="S8eui_ZaXEUrt6HRGxUd-140" value="init executor cases to pending" style="whiteSpace=wrap;html=1;fillColor=#dae8fc;gradientColor=#7ea6e0;strokeColor=#6c8ebf;" vertex="1" parent="1">
          <mxGeometry x="1907.3899999999999" y="1209" width="192.5" height="50" as="geometry" />
        </mxCell>
        <mxCell id="S8eui_ZaXEUrt6HRGxUd-141" style="edgeStyle=orthogonalEdgeStyle;rounded=0;orthogonalLoop=1;jettySize=auto;html=1;" edge="1" parent="1" source="S8eui_ZaXEUrt6HRGxUd-142">
          <mxGeometry relative="1" as="geometry">
            <mxPoint x="1790" y="1325" as="targetPoint" />
          </mxGeometry>
        </mxCell>
        <mxCell id="S8eui_ZaXEUrt6HRGxUd-142" value="init plan to pending" style="whiteSpace=wrap;html=1;fillColor=#dae8fc;gradientColor=#7ea6e0;strokeColor=#6c8ebf;" vertex="1" parent="1">
          <mxGeometry x="1907.3899999999999" y="1300" width="192.5" height="50" as="geometry" />
        </mxCell>
        <mxCell id="S8eui_ZaXEUrt6HRGxUd-143" value="init device_tasks to pending" style="whiteSpace=wrap;html=1;fillColor=#dae8fc;strokeColor=#6c8ebf;gradientColor=#7ea6e0;" vertex="1" parent="1">
          <mxGeometry x="1907.3899999999999" y="1040" width="192.5" height="50" as="geometry" />
        </mxCell>
        <mxCell id="S8eui_ZaXEUrt6HRGxUd-144" value="end" style="ellipse;whiteSpace=wrap;html=1;" vertex="1" parent="1">
          <mxGeometry x="1730" y="1410" width="120" height="80" as="geometry" />
        </mxCell>
        <mxCell id="S8eui_ZaXEUrt6HRGxUd-145" style="edgeStyle=orthogonalEdgeStyle;rounded=0;orthogonalLoop=1;jettySize=auto;html=1;entryX=1;entryY=0.5;entryDx=0;entryDy=0;strokeColor=#6c8ebf;fillColor=#dae8fc;gradientColor=#7ea6e0;" edge="1" parent="1" source="S8eui_ZaXEUrt6HRGxUd-148" target="S8eui_ZaXEUrt6HRGxUd-143">
          <mxGeometry relative="1" as="geometry" />
        </mxCell>
        <mxCell id="S8eui_ZaXEUrt6HRGxUd-146" style="edgeStyle=orthogonalEdgeStyle;rounded=0;orthogonalLoop=1;jettySize=auto;html=1;entryX=1;entryY=0.5;entryDx=0;entryDy=0;strokeColor=#6c8ebf;fillColor=#dae8fc;gradientColor=#7ea6e0;" edge="1" parent="1" source="S8eui_ZaXEUrt6HRGxUd-148" target="S8eui_ZaXEUrt6HRGxUd-140">
          <mxGeometry relative="1" as="geometry" />
        </mxCell>
        <mxCell id="S8eui_ZaXEUrt6HRGxUd-147" style="edgeStyle=orthogonalEdgeStyle;rounded=0;orthogonalLoop=1;jettySize=auto;html=1;entryX=1;entryY=0.5;entryDx=0;entryDy=0;strokeColor=#6c8ebf;fillColor=#dae8fc;gradientColor=#7ea6e0;" edge="1" parent="1" source="S8eui_ZaXEUrt6HRGxUd-148" target="S8eui_ZaXEUrt6HRGxUd-142">
          <mxGeometry relative="1" as="geometry" />
        </mxCell>
        <mxCell id="S8eui_ZaXEUrt6HRGxUd-148" value="" style="strokeWidth=2;html=1;shape=mxgraph.flowchart.annotation_2;align=left;labelPosition=right;pointerEvents=1;strokeColor=#6c8ebf;fillColor=#dae8fc;gradientColor=#7ea6e0;" vertex="1" parent="1">
          <mxGeometry x="2310" y="1015" width="50" height="100" as="geometry" />
        </mxCell>
        <mxCell id="S8eui_ZaXEUrt6HRGxUd-149" value="" style="edgeStyle=orthogonalEdgeStyle;rounded=0;orthogonalLoop=1;jettySize=auto;html=1;strokeColor=#6c8ebf;fillColor=#dae8fc;gradientColor=#7ea6e0;" edge="1" parent="1" source="S8eui_ZaXEUrt6HRGxUd-150" target="S8eui_ZaXEUrt6HRGxUd-148">
          <mxGeometry relative="1" as="geometry" />
        </mxCell>
        <mxCell id="S8eui_ZaXEUrt6HRGxUd-150" value="新增浏览器信息" style="text;html=1;align=center;verticalAlign=middle;whiteSpace=wrap;rounded=0;strokeColor=#6c8ebf;fillColor=#dae8fc;gradientColor=#7ea6e0;" vertex="1" parent="1">
          <mxGeometry x="2400" y="1050" width="60" height="30" as="geometry" />
        </mxCell>
        <mxCell id="S8eui_ZaXEUrt6HRGxUd-151" value="new" style="rounded=1;whiteSpace=wrap;html=1;fillColor=#ffcc99;strokeColor=#36393d;" vertex="1" parent="1">
          <mxGeometry x="1700" y="10" width="50" height="50" as="geometry" />
        </mxCell>
        <mxCell id="S8eui_ZaXEUrt6HRGxUd-152" value="update" style="rounded=1;whiteSpace=wrap;html=1;fillColor=#dae8fc;strokeColor=#6c8ebf;gradientColor=#7ea6e0;" vertex="1" parent="1">
          <mxGeometry x="1750" y="10" width="50" height="50" as="geometry" />
        </mxCell>
        <mxCell id="S8eui_ZaXEUrt6HRGxUd-153" value="no change" style="rounded=1;whiteSpace=wrap;html=1;" vertex="1" parent="1">
          <mxGeometry x="1800" y="10" width="50" height="50" as="geometry" />
        </mxCell>
        <mxCell id="S8eui_ZaXEUrt6HRGxUd-155" value="remove" style="rounded=1;whiteSpace=wrap;html=1;fillColor=#f5f5f5;gradientColor=#b3b3b3;strokeColor=#666666;" vertex="1" parent="1">
          <mxGeometry x="1850" y="10" width="50" height="50" as="geometry" />
        </mxCell>
        <mxCell id="S8eui_ZaXEUrt6HRGxUd-156" value="make plan" style="shape=note;strokeWidth=2;fontSize=14;size=20;whiteSpace=wrap;html=1;fillColor=#fff2cc;strokeColor=#d6b656;fontColor=#666600;" vertex="1" parent="1">
          <mxGeometry x="1700" y="90" width="110.00000000000001" height="80" as="geometry" />
        </mxCell>
        <mxCell id="S8eui_ZaXEUrt6HRGxUd-157" value="make plan for&amp;nbsp;mobile web test (mac mini)" style="shape=note;whiteSpace=wrap;html=1;backgroundOutline=1;darkOpacity=0.05;fillColor=#fff2cc;strokeColor=#d6b656;" vertex="1" parent="1">
          <mxGeometry x="1835" y="80" width="300" height="100" as="geometry" />
        </mxCell>
      </root>
    </mxGraphModel>
  </diagram>
</mxfile>
